<?xml version="1.0" encoding="UTF-8"?>
<svg id="Layer_1" data-name="Layer 1" xmlns="http://www.w3.org/2000/svg" xmlns:xlink="http://www.w3.org/1999/xlink" viewBox="0 0 975.29 755.59">
  <defs>
    <style>
      .cls-1 {
        fill: url(#linear-gradient-21);
        filter: url(#outer-glow-9);
      }

      .cls-1, .cls-2, .cls-3, .cls-4, .cls-5, .cls-6, .cls-7, .cls-8, .cls-9, .cls-10, .cls-11, .cls-12, .cls-13, .cls-14, .cls-15, .cls-16, .cls-17, .cls-18, .cls-19, .cls-20, .cls-21, .cls-22, .cls-23, .cls-24, .cls-25, .cls-26, .cls-27, .cls-28, .cls-29, .cls-30, .cls-31, .cls-32, .cls-33, .cls-34, .cls-35, .cls-36, .cls-37, .cls-38, .cls-39, .cls-40, .cls-41, .cls-42, .cls-43, .cls-44 {
        stroke-width: 0px;
      }

      .cls-45 {
        filter: url(#outer-glow-12);
      }

      .cls-46 {
        clip-path: url(#clippath);
      }

      .cls-2, .cls-47, .cls-48, .cls-49, .cls-50 {
        fill: none;
      }

      .cls-51 {
        stroke: url(#linear-gradient-18);
        stroke-width: 1.83px;
      }

      .cls-51, .cls-52, .cls-53, .cls-47, .cls-54, .cls-55, .cls-56, .cls-48, .cls-49, .cls-57, .cls-58, .cls-59, .cls-50, .cls-60 {
        stroke-miterlimit: 10;
      }

      .cls-51, .cls-52, .cls-53, .cls-54, .cls-55, .cls-56, .cls-57, .cls-58, .cls-59, .cls-40, .cls-60 {
        fill: #0fc382;
      }

      .cls-61 {
        opacity: .1;
      }

      .cls-52 {
        stroke: url(#linear-gradient-11);
        stroke-width: 6.23px;
      }

      .cls-3 {
        fill: url(#radial-gradient);
      }

      .cls-53 {
        stroke: url(#linear-gradient-12);
        stroke-width: 5.65px;
      }

      .cls-4 {
        fill: url(#linear-gradient-38);
      }

      .cls-5 {
        fill: url(#linear-gradient-33);
      }

      .cls-6 {
        fill: url(#linear-gradient-29);
      }

      .cls-7, .cls-62 {
        fill: url(#linear-gradient-30);
      }

      .cls-8 {
        fill: url(#linear-gradient-31);
      }

      .cls-9 {
        fill: url(#linear-gradient-36);
      }

      .cls-10 {
        fill: url(#linear-gradient-39);
      }

      .cls-11 {
        fill: url(#linear-gradient-34);
      }

      .cls-12 {
        fill: url(#linear-gradient-37);
      }

      .cls-13 {
        fill: url(#linear-gradient-35);
      }

      .cls-14, .cls-63 {
        fill: url(#linear-gradient-28);
      }

      .cls-15 {
        fill: url(#linear-gradient-25);
      }

      .cls-16 {
        fill: url(#linear-gradient-22);
      }

      .cls-17 {
        fill: url(#linear-gradient-20);
      }

      .cls-18 {
        fill: url(#linear-gradient-27);
      }

      .cls-19 {
        fill: url(#linear-gradient-42);
      }

      .cls-20 {
        fill: url(#linear-gradient-40);
      }

      .cls-21 {
        fill: url(#linear-gradient-41);
      }

      .cls-47 {
        stroke-linecap: round;
      }

      .cls-47, .cls-50 {
        stroke: #deb4ff;
        stroke-width: 1px;
      }

      .cls-54 {
        stroke: url(#linear-gradient-10);
        stroke-width: 5.96px;
      }

      .cls-64 {
        clip-path: url(#clippath-1);
      }

      .cls-65 {
        clip-path: url(#clippath-4);
      }

      .cls-66 {
        clip-path: url(#clippath-3);
      }

      .cls-67 {
        clip-path: url(#clippath-2);
      }

      .cls-68 {
        clip-path: url(#clippath-7);
      }

      .cls-69 {
        clip-path: url(#clippath-8);
      }

      .cls-70 {
        clip-path: url(#clippath-6);
      }

      .cls-71 {
        clip-path: url(#clippath-5);
      }

      .cls-55 {
        stroke: url(#linear-gradient-19);
        stroke-width: 1.51px;
      }

      .cls-22 {
        fill: url(#linear-gradient-5);
        filter: url(#outer-glow-6);
      }

      .cls-23 {
        fill: url(#linear-gradient-6);
        filter: url(#outer-glow-7);
      }

      .cls-24 {
        fill: url(#linear-gradient-2);
        filter: url(#outer-glow-4);
      }

      .cls-25 {
        fill: url(#linear-gradient-4);
        filter: url(#outer-glow-5);
      }

      .cls-56 {
        stroke: url(#linear-gradient-15);
        stroke-width: 3.05px;
      }

      .cls-26 {
        fill: url(#linear-gradient-32);
      }

      .cls-26, .cls-72 {
        opacity: .2;
      }

      .cls-48 {
        stroke: url(#linear-gradient-7);
      }

      .cls-48, .cls-49 {
        stroke-width: 7.45px;
      }

      .cls-27 {
        fill: url(#radial-gradient-2);
      }

      .cls-28 {
        fill: url(#radial-gradient-3);
      }

      .cls-29 {
        fill: url(#radial-gradient-4);
      }

      .cls-30 {
        fill: url(#radial-gradient-6);
      }

      .cls-31 {
        fill: url(#radial-gradient-5);
      }

      .cls-32 {
        fill: url(#radial-gradient-7);
      }

      .cls-33 {
        fill: #7c7c7c;
      }

      .cls-33, .cls-73 {
        opacity: .5;
      }

      .cls-74, .cls-37 {
        fill: url(#linear-gradient-8);
      }

      .cls-49 {
        stroke: url(#linear-gradient-26);
      }

      .cls-34 {
        fill: url(#linear-gradient-24);
        filter: url(#outer-glow-11);
      }

      .cls-35 {
        fill: url(#linear-gradient-23);
        filter: url(#outer-glow-10);
      }

      .cls-57 {
        stroke: url(#linear-gradient-16);
        stroke-width: 2.8px;
      }

      .cls-36 {
        fill: url(#linear-gradient-3);
      }

      .cls-38 {
        fill: url(#linear-gradient-9);
      }

      .cls-58 {
        stroke: url(#linear-gradient-13);
        stroke-width: 4.96px;
      }

      .cls-59 {
        stroke: url(#linear-gradient-14);
        stroke-width: 4.12px;
      }

      .cls-41 {
        fill: #deb4ff;
      }

      .cls-42 {
        fill: #fff;
      }

      .cls-43 {
        fill: #6a3c98;
      }

      .cls-44 {
        fill: url(#linear-gradient);
        filter: url(#outer-glow-3);
      }

      .cls-60 {
        stroke: url(#linear-gradient-17);
        stroke-width: 2.39px;
      }

      .cls-75 {
        filter: url(#outer-glow-8);
      }
    </style>
    <linearGradient id="linear-gradient" x1="787.47" y1="536.58" x2="877.52" y2="536.58" gradientUnits="userSpaceOnUse">
      <stop offset="0" stop-color="#ffa17f"/>
      <stop offset="1" stop-color="#f40"/>
    </linearGradient>
    <filter id="outer-glow-3" filterUnits="userSpaceOnUse">
      <feOffset dx="0" dy="0"/>
      <feGaussianBlur result="blur" stdDeviation="5.29"/>
      <feFlood flood-color="#f40" flood-opacity="1"/>
      <feComposite in2="blur" operator="in"/>
      <feComposite in="SourceGraphic"/>
    </filter>
    <linearGradient id="linear-gradient-2" x1="595.63" y1="595.01" x2="676.2" y2="595.01" xlink:href="#linear-gradient"/>
    <filter id="outer-glow-4" filterUnits="userSpaceOnUse">
      <feOffset dx="0" dy="0"/>
      <feGaussianBlur result="blur-2" stdDeviation="4.73"/>
      <feFlood flood-color="#f40" flood-opacity="1"/>
      <feComposite in2="blur-2" operator="in"/>
      <feComposite in="SourceGraphic"/>
    </filter>
    <linearGradient id="linear-gradient-3" x1="595.63" y1="590.03" x2="676.2" y2="590.03" gradientUnits="userSpaceOnUse">
      <stop offset="0" stop-color="#95ffcc"/>
      <stop offset="1" stop-color="#0fc382"/>
    </linearGradient>
    <linearGradient id="linear-gradient-4" x1="21.63" y1="411" x2="139.65" y2="411" xlink:href="#linear-gradient"/>
    <filter id="outer-glow-5" filterUnits="userSpaceOnUse">
      <feOffset dx="0" dy="0"/>
      <feGaussianBlur result="blur-3" stdDeviation="6.93"/>
      <feFlood flood-color="#f40" flood-opacity="1"/>
      <feComposite in2="blur-3" operator="in"/>
      <feComposite in="SourceGraphic"/>
    </filter>
    <linearGradient id="linear-gradient-5" x1="316.78" y1="346.42" x2="367.5" y2="346.42" xlink:href="#linear-gradient"/>
    <filter id="outer-glow-6" filterUnits="userSpaceOnUse">
      <feOffset dx="0" dy="0"/>
      <feGaussianBlur result="blur-4" stdDeviation="2.98"/>
      <feFlood flood-color="#f40" flood-opacity="1"/>
      <feComposite in2="blur-4" operator="in"/>
      <feComposite in="SourceGraphic"/>
    </filter>
    <linearGradient id="linear-gradient-6" x1="481.1" y1="319.63" x2="657.71" y2="319.63" xlink:href="#linear-gradient"/>
    <filter id="outer-glow-7" filterUnits="userSpaceOnUse">
      <feOffset dx="0" dy="0"/>
      <feGaussianBlur result="blur-5" stdDeviation="10.37"/>
      <feFlood flood-color="#f40" flood-opacity="1"/>
      <feComposite in2="blur-5" operator="in"/>
      <feComposite in="SourceGraphic"/>
    </filter>
    <filter id="outer-glow-8" filterUnits="userSpaceOnUse">
      <feOffset dx="0" dy="0"/>
      <feGaussianBlur result="blur-6" stdDeviation="12.87"/>
      <feFlood flood-color="#f40" flood-opacity="1"/>
      <feComposite in2="blur-6" operator="in"/>
      <feComposite in="SourceGraphic"/>
    </filter>
    <linearGradient id="linear-gradient-7" x1="447.03" y1="315.95" x2="690.11" y2="315.95" gradientUnits="userSpaceOnUse">
      <stop offset="0" stop-color="#f40" stop-opacity="0"/>
      <stop offset=".19" stop-color="#ff5315" stop-opacity=".17"/>
      <stop offset=".61" stop-color="#ff7a4a" stop-opacity=".59"/>
      <stop offset="1" stop-color="#ffa17f"/>
    </linearGradient>
    <linearGradient id="linear-gradient-8" x1="493.49" y1="26.35" x2="653.45" y2="303.41" gradientUnits="userSpaceOnUse">
      <stop offset=".05" stop-color="#95ffcc"/>
      <stop offset=".86" stop-color="#0fc382"/>
    </linearGradient>
    <clipPath id="clippath">
      <path class="cls-37" d="M551.81,325.67c-2.02-1.05-3.77-2.48-5.15-4.21-12.36-15.45-69.3-94.85,8.66-159.39,82-67.89,41.72-141.98-16.12-157.95-2.49-.69-2.02-4.08.58-4.11,19.47-.23,54.53,5.25,81.39,42.32,31.59,43.61,19.31,87.26-9.56,125.35-41.48,54.74-56.38,70.21,7.01,151.62,1.37,1.76.6,4.25-1.58,5.06l-31.27,11.6c-5.29,1.96-11.26,1.59-16.22-1l-17.74-9.29Z"/>
    </clipPath>
    <linearGradient id="linear-gradient-9" x1="629.24" y1="327.21" x2="464.22" y2="41.4" gradientUnits="userSpaceOnUse">
      <stop offset=".14" stop-color="#95ffcc"/>
      <stop offset=".98" stop-color="#dbfff8"/>
    </linearGradient>
    <linearGradient id="linear-gradient-10" x1="-366.43" y1="1376.92" x2="-366.43" y2="1339.75" gradientTransform="translate(1177.1 -767.31) rotate(13.97) scale(1.02 .86)" gradientUnits="userSpaceOnUse">
      <stop offset="0" stop-color="#107557"/>
      <stop offset="1" stop-color="#0fc382"/>
    </linearGradient>
    <linearGradient id="linear-gradient-11" x1="315.13" y1="31.86" x2="315.13" y2="-1.86" gradientTransform="translate(524.14 -139.34) rotate(87.16) scale(1.18 1.03)" xlink:href="#linear-gradient-10"/>
    <linearGradient id="linear-gradient-12" x1="1444.46" y1="-879.6" x2="1444.46" y2="-913.04" gradientTransform="translate(-504.8 -1150.93) rotate(83.96)" xlink:href="#linear-gradient-10"/>
    <linearGradient id="linear-gradient-13" x1="2059.64" y1="-2307.15" x2="2059.64" y2="-2338.68" gradientTransform="translate(-1846.6 -1504.66) rotate(82.32) scale(.96 .93)" xlink:href="#linear-gradient-10"/>
    <linearGradient id="linear-gradient-14" x1="1734.46" y1="-1608.02" x2="1734.46" y2="-1632.67" gradientTransform="translate(-1235.21 -1388.79) rotate(82.78)" xlink:href="#linear-gradient-10"/>
    <linearGradient id="linear-gradient-15" x1="1179.95" y1="-579.77" x2="1179.95" y2="-597.74" gradientTransform="translate(-75.24 -1033.39) rotate(85.6)" xlink:href="#linear-gradient-10"/>
    <linearGradient id="linear-gradient-16" x1="-325.6" y1="583.78" x2="-325.6" y2="567.27" gradientTransform="translate(974.03 -475.87) rotate(4.71)" xlink:href="#linear-gradient-10"/>
    <linearGradient id="linear-gradient-17" x1="-1093.31" y1="798.77" x2="-1093.31" y2="784.54" gradientTransform="translate(1775.53 -606.76) rotate(6.85)" xlink:href="#linear-gradient-10"/>
    <linearGradient id="linear-gradient-18" x1="-1881.19" y1="847.05" x2="-1881.19" y2="836.05" gradientTransform="translate(2558.5 -562.31) rotate(7.32)" xlink:href="#linear-gradient-10"/>
    <linearGradient id="linear-gradient-19" x1="-1882.99" y1="829.51" x2="-1882.99" y2="820.4" gradientTransform="translate(2546.08 -557.14) rotate(7.32)" xlink:href="#linear-gradient-10"/>
    <linearGradient id="linear-gradient-20" x1="575.44" y1="341.05" x2="575.44" y2="0" gradientUnits="userSpaceOnUse">
      <stop offset=".04" stop-color="#000"/>
      <stop offset=".43" stop-color="#000" stop-opacity="0"/>
    </linearGradient>
    <linearGradient id="linear-gradient-21" x1="171.23" y1="197.56" x2="245.21" y2="197.56" xlink:href="#linear-gradient"/>
    <filter id="outer-glow-9" filterUnits="userSpaceOnUse">
      <feOffset dx="0" dy="0"/>
      <feGaussianBlur result="blur-7" stdDeviation="7.21"/>
      <feFlood flood-color="#f40" flood-opacity="1"/>
      <feComposite in2="blur-7" operator="in"/>
      <feComposite in="SourceGraphic"/>
    </filter>
    <linearGradient id="linear-gradient-22" x1="169.91" y1="201.22" x2="237.9" y2="201.22" xlink:href="#linear-gradient-3"/>
    <linearGradient id="linear-gradient-23" x1="901.98" y1="96.46" x2="958.42" y2="96.46" xlink:href="#linear-gradient"/>
    <filter id="outer-glow-10" filterUnits="userSpaceOnUse">
      <feOffset dx="0" dy="0"/>
      <feGaussianBlur result="blur-8" stdDeviation="5.5"/>
      <feFlood flood-color="#f40" flood-opacity="1"/>
      <feComposite in2="blur-8" operator="in"/>
      <feComposite in="SourceGraphic"/>
    </filter>
    <linearGradient id="linear-gradient-24" x1="783.99" y1="248.31" x2="900.98" y2="248.31" xlink:href="#linear-gradient"/>
    <filter id="outer-glow-11" filterUnits="userSpaceOnUse">
      <feOffset dx="0" dy="0"/>
      <feGaussianBlur result="blur-9" stdDeviation="11.4"/>
      <feFlood flood-color="#f40" flood-opacity="1"/>
      <feComposite in2="blur-9" operator="in"/>
      <feComposite in="SourceGraphic"/>
    </filter>
    <linearGradient id="linear-gradient-25" x1="835.66" y1="162.44" x2="835.66" y2="345.75" xlink:href="#linear-gradient-3"/>
    <filter id="outer-glow-12" filterUnits="userSpaceOnUse">
      <feOffset dx="0" dy="0"/>
      <feGaussianBlur result="blur-10" stdDeviation="17.5"/>
      <feFlood flood-color="#f40" flood-opacity="1"/>
      <feComposite in2="blur-10" operator="in"/>
      <feComposite in="SourceGraphic"/>
    </filter>
    <linearGradient id="linear-gradient-26" x1="772.92" y1="289.95" x2="913.71" y2="208.66" xlink:href="#linear-gradient-7"/>
    <linearGradient id="linear-gradient-27" x1="832.49" y1="201.76" x2="832.49" y2="303.75" gradientTransform="translate(133.45 -265.2) rotate(19.65)" gradientUnits="userSpaceOnUse">
      <stop offset=".08" stop-color="#fff"/>
      <stop offset="1" stop-color="#f6eaff"/>
    </linearGradient>
    <radialGradient id="radial-gradient" cx="832.49" cy="252.75" fx="820.36" fy="233.64" r="28.46" gradientTransform="translate(164.95 -353.4) rotate(19.65) scale(1 1.37)" gradientUnits="userSpaceOnUse">
      <stop offset="0" stop-color="#ffa17f"/>
      <stop offset=".16" stop-color="#ff9d7a"/>
      <stop offset=".34" stop-color="#ff936c"/>
      <stop offset=".54" stop-color="#ff8255"/>
      <stop offset=".74" stop-color="#ff6b35"/>
      <stop offset=".94" stop-color="#ff4d0d"/>
      <stop offset="1" stop-color="#f40"/>
    </radialGradient>
    <linearGradient id="linear-gradient-28" x1="254.16" y1="522.58" x2="395.69" y2="664.11" gradientUnits="userSpaceOnUse">
      <stop offset=".26" stop-color="#f6eaff"/>
      <stop offset=".86" stop-color="#deb4ff"/>
    </linearGradient>
    <clipPath id="clippath-1">
      <path class="cls-14" d="M330.19,641.81c-4.98-6.69-5.17-15.55-.47-22.64l41.79-63.12c3.23-4.87,5.19-10.35,5.72-15.98l2.2-23.26c.7-7.36-7.08-12.74-14.65-10.13l-23.87,8.23c-5.58,1.92-10.66,4.97-14.84,8.92l-56.3,53.17c-6.28,5.93-15.65,8.04-23.98,5.39l-28.07-8.92c-7.19-2.28-15.27,0-20.02,5.66l-8.58,10.23c-1.22,1.45-.95,3.5.59,4.58l35.67,24.98,71.4,50,35.27,24.69c1.54,1.08,3.78.78,4.99-.67l8.58-10.23c4.74-5.65,5.06-13.38.78-19.13l-16.22-21.77Z"/>
    </clipPath>
    <linearGradient id="linear-gradient-29" x1="-206.85" y1="89.37" x2="-141.9" y2="89.37" gradientTransform="translate(556.82 422.02) rotate(-12.31) scale(1.27 1.25)" gradientUnits="userSpaceOnUse">
      <stop offset="0" stop-color="#deb4ff" stop-opacity="0"/>
      <stop offset=".1" stop-color="#deb4ff" stop-opacity=".02"/>
      <stop offset=".21" stop-color="#deb4ff" stop-opacity=".07"/>
      <stop offset=".33" stop-color="#deb4ff" stop-opacity=".16"/>
      <stop offset=".46" stop-color="#deb4ff" stop-opacity=".29"/>
      <stop offset=".58" stop-color="#deb4ff" stop-opacity=".45"/>
      <stop offset=".72" stop-color="#deb4ff" stop-opacity=".65"/>
      <stop offset=".85" stop-color="#deb4ff" stop-opacity=".88"/>
      <stop offset=".91" stop-color="#deb4ff"/>
    </linearGradient>
    <linearGradient id="linear-gradient-30" x1="283.38" y1="556.85" x2="322.88" y2="596.35" gradientUnits="userSpaceOnUse">
      <stop offset=".17" stop-color="#f6eaff"/>
      <stop offset=".45" stop-color="#f4e7ff"/>
      <stop offset=".65" stop-color="#f0deff"/>
      <stop offset=".82" stop-color="#e9ceff"/>
      <stop offset=".97" stop-color="#e0b9ff"/>
      <stop offset="1" stop-color="#deb4ff"/>
    </linearGradient>
    <clipPath id="clippath-2">
      <path class="cls-7" d="M274.18,645.05s100.62-100.35,76.14-118.5c-28.25-20.95-103.83,69.2-103.83,69.2l27.68,49.31Z"/>
    </clipPath>
    <linearGradient id="linear-gradient-31" x1="261.76" y1="594.33" x2="318.77" y2="594.33" gradientTransform="translate(17.26 -1.17) rotate(-.51)" gradientUnits="userSpaceOnUse">
      <stop offset="0" stop-color="#deb4ff" stop-opacity="0"/>
      <stop offset=".26" stop-color="#deb4ff" stop-opacity=".32"/>
      <stop offset=".53" stop-color="#deb4ff" stop-opacity=".61"/>
      <stop offset=".75" stop-color="#deb4ff" stop-opacity=".82"/>
      <stop offset=".91" stop-color="#deb4ff" stop-opacity=".95"/>
      <stop offset="1" stop-color="#deb4ff"/>
    </linearGradient>
    <linearGradient id="linear-gradient-32" x1="509.63" y1="505.11" x2="564.96" y2="505.11" gradientTransform="translate(-206.41 5.78) rotate(5.77)" xlink:href="#linear-gradient-31"/>
    <clipPath id="clippath-3">
      <path class="cls-39" d="M280.73,637.37h0c2-2.77,3.19-7.05,3.19-12.57,0-14.08-7.66-30.85-17.1-37.46-5.65-3.95-10.65-3.38-13.77.73l-9.17,10.09,2.33.03c-.49,2.03-.75,4.35-.75,6.96,0,14.08,7.66,30.85,17.1,37.46,2.3,1.61,4.49,2.46,6.49,2.64l1.13,3.89,9.53-10.55c.36-.36.7-.77,1.02-1.21h0Z"/>
    </clipPath>
    <clipPath id="clippath-4">
      <path class="cls-39" d="M264.45,653.69h0c2-2.77,3.19-7.05,3.19-12.57,0-14.08-7.66-30.85-17.1-37.46-5.65-3.95-10.65-3.38-13.77.73l-4.92,5.8,2.33.03c-.49,2.03-.75,4.35-.75,6.96,0,14.08,7.66,30.85,17.1,37.46,2.3,1.61,4.49,2.46,6.49,2.64l1.13,3.89,5.28-6.26c.36-.36.7-.77,1.02-1.21h0Z"/>
    </clipPath>
    <radialGradient id="radial-gradient-2" cx="244.85" cy="635.82" fx="244.85" fy="635.82" r="15.07" gradientTransform="translate(44.91 -571.01) rotate(2.14) scale(1 1.88)" gradientUnits="userSpaceOnUse">
      <stop offset="0" stop-color="#aef1ff"/>
      <stop offset=".08" stop-color="#a7e8f5"/>
      <stop offset=".22" stop-color="#96d0dd"/>
      <stop offset=".4" stop-color="#7baab4"/>
      <stop offset=".61" stop-color="#55757c"/>
      <stop offset=".84" stop-color="#243336"/>
      <stop offset="1" stop-color="#000"/>
    </radialGradient>
    <radialGradient id="radial-gradient-3" cx="244.85" cy="635.82" fx="244.85" fy="635.82" r="11.48" gradientTransform="translate(42.32 -457) rotate(2.23) scale(1 1.71)" gradientUnits="userSpaceOnUse">
      <stop offset=".08" stop-color="#eaf7ff"/>
      <stop offset=".31" stop-color="#e5f6ff"/>
      <stop offset=".55" stop-color="#d8f5ff"/>
      <stop offset=".81" stop-color="#c2f3ff"/>
      <stop offset="1" stop-color="#aef1ff"/>
    </radialGradient>
    <clipPath id="clippath-5">
      <polygon class="cls-2" points="294.91 605.25 304.65 593.65 304.65 605.82 294.91 617.42 294.91 605.25"/>
    </clipPath>
    <clipPath id="clippath-6">
      <polygon class="cls-2" points="294.91 605.25 304.65 593.65 304.65 605.82 294.91 617.42 294.91 605.25"/>
    </clipPath>
    <linearGradient id="linear-gradient-33" x1="294.56" y1="647.15" x2="312.88" y2="665.47" xlink:href="#linear-gradient-30"/>
    <linearGradient id="linear-gradient-34" x1="280.82" y1="664.07" x2="298.39" y2="664.07" xlink:href="#linear-gradient-31"/>
    <clipPath id="clippath-7">
      <path class="cls-39" d="M301.77,676.19h0c.92-1.27,1.46-3.23,1.46-5.75,0-6.44-3.5-14.12-7.83-17.14-2.58-1.81-4.87-1.55-6.3.33l-2.25,2.65h1.07c-.22.94-.34,2.01-.34,3.2,0,6.44,3.5,14.12,7.83,17.14,1.05.74,2.05,1.13,2.97,1.21l.52,1.78,2.41-2.86c.16-.17.32-.35.47-.55h0Z"/>
    </clipPath>
    <radialGradient id="radial-gradient-4" cx="292.8" cy="668.02" fx="292.8" fy="668.02" r="6.9" gradientTransform="translate(47.21 -601.25) rotate(2.14) scale(1 1.88)" xlink:href="#radial-gradient-2"/>
    <radialGradient id="radial-gradient-5" cx="292.8" cy="668.02" fx="292.8" fy="668.02" r="5.25" gradientTransform="translate(44.49 -481.52) rotate(2.23) scale(1 1.71)" xlink:href="#radial-gradient-3"/>
    <linearGradient id="linear-gradient-35" x1="211.37" y1="589.55" x2="229.69" y2="607.87" xlink:href="#linear-gradient-30"/>
    <linearGradient id="linear-gradient-36" x1="198.15" y1="605.72" x2="215.72" y2="605.72" xlink:href="#linear-gradient-31"/>
    <clipPath id="clippath-8">
      <path class="cls-39" d="M218.57,618.59h0c.92-1.27,1.46-3.23,1.46-5.75,0-6.44-3.5-14.12-7.83-17.14-2.58-1.81-4.87-1.55-6.3.33l-2.25,2.65h1.07c-.22.94-.34,2.01-.34,3.2,0,6.44,3.5,14.12,7.83,17.14,1.05.74,2.05,1.13,2.97,1.21l.52,1.78,2.41-2.86c.16-.17.32-.35.47-.55h0Z"/>
    </clipPath>
    <radialGradient id="radial-gradient-6" cx="209.61" cy="610.42" fx="209.61" fy="610.42" r="6.9" gradientTransform="translate(43.1 -547.24) rotate(2.14) scale(1 1.88)" xlink:href="#radial-gradient-2"/>
    <radialGradient id="radial-gradient-7" cx="209.61" cy="610.42" fx="209.61" fy="610.42" r="5.25" gradientTransform="translate(40.61 -437.75) rotate(2.23) scale(1 1.71)" xlink:href="#radial-gradient-3"/>
    <linearGradient id="linear-gradient-37" x1="259.58" y1="707.48" x2="299.53" y2="659.87" gradientUnits="userSpaceOnUse">
      <stop offset="0" stop-color="#aef1ff" stop-opacity="0"/>
      <stop offset=".11" stop-color="#aef1ff" stop-opacity=".02"/>
      <stop offset=".23" stop-color="#aef1ff" stop-opacity=".07"/>
      <stop offset=".36" stop-color="#aef1ff" stop-opacity=".16"/>
      <stop offset=".5" stop-color="#aef1ff" stop-opacity=".29"/>
      <stop offset=".64" stop-color="#aef1ff" stop-opacity=".45"/>
      <stop offset=".79" stop-color="#aef1ff" stop-opacity=".65"/>
      <stop offset=".93" stop-color="#aef1ff" stop-opacity=".88"/>
      <stop offset="1" stop-color="#aef1ff"/>
    </linearGradient>
    <linearGradient id="linear-gradient-38" x1="278.3" y1="685.33" x2="294.91" y2="665.53" gradientUnits="userSpaceOnUse">
      <stop offset="0" stop-color="#eaf7ff" stop-opacity="0"/>
      <stop offset=".11" stop-color="#eaf7ff" stop-opacity=".02"/>
      <stop offset=".23" stop-color="#eaf7ff" stop-opacity=".07"/>
      <stop offset=".36" stop-color="#eaf7ff" stop-opacity=".16"/>
      <stop offset=".5" stop-color="#eaf7ff" stop-opacity=".29"/>
      <stop offset=".64" stop-color="#eaf7ff" stop-opacity=".45"/>
      <stop offset=".78" stop-color="#eaf7ff" stop-opacity=".65"/>
      <stop offset=".93" stop-color="#eaf7ff" stop-opacity=".88"/>
      <stop offset="1" stop-color="#eaf7ff"/>
    </linearGradient>
    <linearGradient id="linear-gradient-39" x1="175.92" y1="648.66" x2="215.87" y2="601.05" xlink:href="#linear-gradient-37"/>
    <linearGradient id="linear-gradient-40" x1="194.64" y1="626.51" x2="211.25" y2="606.71" xlink:href="#linear-gradient-38"/>
    <linearGradient id="linear-gradient-41" x1="161.83" y1="734.32" x2="261.44" y2="615.62" xlink:href="#linear-gradient-37"/>
    <linearGradient id="linear-gradient-42" x1="208.5" y1="679.09" x2="249.93" y2="629.72" xlink:href="#linear-gradient-38"/>
  </defs>
  <g>
    <path class="cls-44" d="M877.52,526.54l-.76,1.39c-.87-2.36-2.47-4.5-4.77-6.11l-34.15-23.91c-6.29-4.4-15.4-3.19-20.35,2.72l-26.9,32.06c-1.19,1.41-2.02,2.97-2.53,4.58l-.58-1.92v5.6s.01,0,.01,0c-.02,3.96,1.88,7.84,5.52,10.39l34.15,23.91c6.29,4.4,15.4,3.19,20.35-2.72l26.9-32.06c2.02-2.41,3.04-5.22,3.1-8.01h0v-5.93Z"/>
    <path class="cls-39" d="M827.16,569.7l-34.15-23.91c-6.29-4.4-7.37-12.76-2.42-18.66l26.9-32.06c4.95-5.9,14.06-7.12,20.35-2.72l34.15,23.91c6.29,4.4,7.37,12.76,2.42,18.66l-26.9,32.06c-4.95,5.9-14.06,7.12-20.35,2.72Z"/>
  </g>
  <g class="cls-72">
    <path class="cls-24" d="M676.2,586.02l-.68,1.25c-.77-2.11-2.21-4.03-4.27-5.47l-30.56-21.4c-5.63-3.94-13.78-2.85-18.21,2.43l-24.07,28.69c-1.06,1.27-1.81,2.66-2.26,4.1l-.52-1.71v5.01s0,0,0,0c-.01,3.54,1.68,7.02,4.94,9.3l30.56,21.4c5.63,3.94,13.78,2.85,18.21-2.43l24.07-28.69c1.81-2.15,2.72-4.67,2.78-7.17h0v-5.31Z"/>
    <path class="cls-36" d="M631.14,624.64l-30.56-21.4c-5.63-3.94-6.59-11.41-2.16-16.7l24.07-28.69c4.43-5.28,12.59-6.37,18.21-2.43l30.56,21.4c5.63,3.94,6.59,11.41,2.16,16.7l-24.07,28.69c-4.43,5.28-12.59,6.37-18.21,2.43Z"/>
  </g>
  <g class="cls-73">
    <path class="cls-25" d="M139.65,397.84l-.99,1.83c-1.13-3.09-3.23-5.9-6.25-8.01l-44.76-31.34c-8.24-5.77-20.18-4.18-26.67,3.56l-35.26,42.02c-1.56,1.85-2.65,3.89-3.32,6l-.77-2.51v7.34s.01,0,.01,0c-.02,5.19,2.46,10.28,7.24,13.62l44.76,31.34c8.24,5.77,20.18,4.18,26.67-3.56l35.26-42.02c2.65-3.16,3.98-6.85,4.07-10.5h0v-7.77Z"/>
    <path class="cls-39" d="M73.64,454.4l-44.76-31.34c-8.24-5.77-9.66-16.72-3.17-24.45l35.26-42.02c6.49-7.74,18.43-9.33,26.67-3.56l44.76,31.34c8.24,5.77,9.66,16.72,3.17,24.45l-35.26,42.02c-6.49,7.74-18.43,9.33-26.67,3.56Z"/>
  </g>
  <g class="cls-61">
    <path class="cls-22" d="M367.5,340.76l-.43.79c-.49-1.33-1.39-2.53-2.69-3.44l-19.24-13.47c-3.54-2.48-8.67-1.8-11.46,1.53l-15.15,18.06c-.67.8-1.14,1.67-1.42,2.58l-.33-1.08v3.15s0,0,0,0c0,2.23,1.06,4.42,3.11,5.85l19.24,13.47c3.54,2.48,8.67,1.8,11.46-1.53l15.15-18.06c1.14-1.36,1.71-2.94,1.75-4.51h0v-3.34Z"/>
    <path class="cls-39" d="M339.13,365.07l-19.24-13.47c-3.54-2.48-4.15-7.19-1.36-10.51l15.15-18.06c2.79-3.32,7.92-4.01,11.46-1.53l19.24,13.47c3.54,2.48,4.15,7.19,1.36,10.51l-15.15,18.06c-2.79,3.32-7.92,4.01-11.46,1.53Z"/>
  </g>
  <g>
    <g>
      <path class="cls-23" d="M657.71,299.93l-1.48,2.73c-1.7-4.62-4.84-8.82-9.35-11.98l-66.98-46.9c-12.33-8.63-30.2-6.25-39.92,5.33l-52.76,62.88c-2.33,2.77-3.97,5.82-4.96,8.98l-1.15-3.76v10.98s.02.01.02.01c-.03,7.77,3.68,15.38,10.83,20.38l66.98,46.9c12.33,8.63,30.2,6.25,39.92-5.33l52.76-62.88c3.96-4.72,5.95-10.25,6.09-15.72h0v-11.63Z"/>
      <path class="cls-39" d="M558.94,384.58l-66.98-46.9c-12.33-8.63-14.45-25.02-4.74-36.59l52.76-62.88c9.71-11.58,27.58-13.96,39.92-5.33l66.98,46.9c12.33,8.63,14.45,25.02,4.74,36.59l-52.76,62.88c-9.71,11.58-27.58,13.96-39.92,5.33Z"/>
    </g>
    <g class="cls-75">
      <path class="cls-48" d="M554.59,417.16l-89.38-62.58c-16.45-11.52-19.29-33.38-6.33-48.83l70.4-83.9c12.96-15.45,36.81-18.63,53.26-7.11l89.38,62.58c16.45,11.52,19.29,33.38,6.33,48.83l-70.4,83.9c-12.96,15.45-36.81,18.63-53.26,7.11Z"/>
    </g>
    <g id="sotet">
      <g>
        <path class="cls-74" d="M551.81,325.67c-2.02-1.05-3.77-2.48-5.15-4.21-12.36-15.45-69.3-94.85,8.66-159.39,82-67.89,41.72-141.98-16.12-157.95-2.49-.69-2.02-4.08.58-4.11,19.47-.23,54.53,5.25,81.39,42.32,31.59,43.61,19.31,87.26-9.56,125.35-41.48,54.74-56.38,70.21,7.01,151.62,1.37,1.76.6,4.25-1.58,5.06l-31.27,11.6c-5.29,1.96-11.26,1.59-16.22-1l-17.74-9.29Z"/>
        <g class="cls-46">
          <path class="cls-38" d="M475.46,299.48l104.97,55.08,20.35-10.92s-68.53-61.37-45.89-131.92c13.78-42.96,50.7-53.68,63.08-108.76,7.71-34.3-24.4-99.82-88.57-99.19l38.23,109.55-102.41,96.46,10.24,89.7Z"/>
        </g>
      </g>
      <ellipse class="cls-54" cx="533.32" cy="277.41" rx="12.39" ry="13.49" transform="translate(-67.27 303.56) rotate(-29.97)"/>
      <ellipse class="cls-52" cx="527.25" cy="233.73" rx="14.13" ry="12.9" transform="translate(237.41 732.34) rotate(-83.74)"/>
      <ellipse class="cls-53" cx="538.44" cy="191.27" rx="13.93" ry="10.77" transform="translate(116.51 576.59) rotate(-61.96)"/>
      <ellipse class="cls-58" cx="566.01" cy="158.03" rx="12.45" ry="9.3" transform="translate(20.06 375.46) rotate(-37.32)"/>
      <ellipse class="cls-59" cx="590.15" cy="128.42" rx="10.3" ry="7.76" transform="translate(111.83 497.17) rotate(-49.91)"/>
      <ellipse class="cls-56" cx="602.27" cy="97.93" rx="7.47" ry="5.86" transform="translate(316.24 636.91) rotate(-71.28)"/>
      <ellipse class="cls-57" cx="602.27" cy="70.98" rx="5.37" ry="6.86" transform="translate(12.75 213.22) rotate(-20.29)"/>
      <ellipse class="cls-60" cx="595.63" cy="48.87" rx="4.53" ry="5.94" transform="translate(78.85 349.05) rotate(-34.84)"/>
      <ellipse class="cls-51" cx="585.45" cy="32.81" rx="3.4" ry="4.61" transform="translate(165.77 442.32) rotate(-47.5)"/>
      <ellipse class="cls-55" cx="573.37" cy="21.29" rx="2.82" ry="3.82" transform="translate(170.34 429.67) rotate(-47.5)"/>
      <path class="cls-17" d="M611.61,167.68c28.87-38.09,41.16-81.74,9.56-125.35C594.32,5.26,559.25-.23,539.78,0c-2.6.03-3.07,3.42-.58,4.11,10.95,3.02,21.28,8.14,30.26,14.9-.58,1.31-.21,3.09,1.07,4.5,1.07,1.17,2.52,1.81,3.84,1.81.72,0,1.39-.2,1.94-.59,1.64,1.52,3.23,3.1,4.74,4.74-.49.68-.71,1.54-.65,2.49.09,1.23.66,2.48,1.62,3.53.95,1.05,2.19,1.78,3.48,2.07.39.09.78.13,1.16.13.34,0,.67-.05.99-.12,1.31,1.83,2.54,3.7,3.69,5.63-2.2,1.68-2.64,5.16-.89,8.22,1.47,2.56,4.05,4.11,6.46,4.11.11,0,.21-.01.31-.02.93,2.51,1.72,5.08,2.37,7.7-3.44,1.1-5.21,5.26-3.94,9.47.61,2.03,1.83,3.78,3.43,4.95.83.6,1.72,1,2.62,1.21.09,3.48-.06,7.01-.49,10.61-2.79.84-5.26,3.37-6.19,6.76-1.02,3.72.1,7.37,2.56,9.23-1.29,3.86-2.88,7.75-4.82,11.67-1.28-.02-2.61.18-3.96.66-2.8.98-5.34,2.96-7.15,5.56-3.06,4.39-3.29,9.55-.96,12.91-2.41,3.12-5.05,6.25-7.93,9.37-4.79-1.4-10.91.16-15.46,4.37-4.56,4.23-6.24,9.94-4.69,14.39-4.15,3.6-7.89,7.24-11.25,10.91-6.19-.22-12.73,4.18-15.78,11.17-1.72,3.94-2.1,8.13-1.08,11.82.07.24.16.47.23.7-3.68,7.26-6.18,14.52-7.72,21.68-.2.18-.4.34-.6.52-3.13,3.04-5.02,7.18-5.31,11.66-.31,4.77,1.27,9.19,4.05,12.46.48,8.34,1.99,16.36,4.14,23.88-.04.07-.08.14-.12.21-1.84,3.66-2.15,7.92-.89,12.02,1.59,5.14,5.41,9.05,9.99,10.91,6.9,14.07,11.47,26.49,15.19,31.14,1.38,1.72,7.78,5.98,9.79,7.03l17.61,9.04c4.96,2.6,12.05,1.46,17.34-.5l33.05-10.3c2.17-.81,4.08-6.78,2.71-8.54-8.62-11.07-21.15-21.81-27-30.7-37.21-56.53-21.21-74.52,14.63-121.81Z"/>
    </g>
  </g>
  <g>
    <path class="cls-1" d="M238.61,176.23l-53.52-38.12c-1.95-1.36-4.32-1.1-5.94.17h0c-.12.1-.24.19-.36.3l-7.56,6.3,5.99,17.64v38.35c0,5.05,2.47,9.79,6.6,12.69l52.28,37.52-6.39,2.49,6.57,4.37,6.72-6.5h0c1.07-.89,1.79-2.22,1.79-3.83l.41-58.69c0-5.05-2.47-9.79-6.6-12.69Z"/>
    <path class="cls-16" d="M230.04,258.27l-53.52-38.39c-4.14-2.9-6.6-7.63-6.6-12.69v-58.93c0-4.04,4.55-6.41,7.86-4.09l53.52,38.39c4.14,2.9,6.6,7.63,6.6,12.69v58.93c0,4.04-4.55,6.41-7.86,4.09Z"/>
  </g>
  <g class="cls-72">
    <path class="cls-35" d="M953.38,80.19l-40.83-29.08c-1.49-1.04-3.29-.84-4.53.13h0c-.09.07-.19.15-.27.23l-5.76,4.8,4.57,13.46v29.26c0,3.85,1.88,7.47,5.04,9.68l39.89,28.63-4.88,1.9,5.01,3.33,5.13-4.96h0c.82-.68,1.37-1.7,1.37-2.92l.31-44.78c0-3.85-1.88-7.47-5.04-9.68Z"/>
    <path class="cls-39" d="M946.85,142.78l-40.83-29.29c-3.16-2.21-5.04-5.82-5.04-9.68v-44.96c0-3.08,3.47-4.89,6-3.12l40.83,29.29c3.16,2.21,5.04,5.82,5.04,9.68v44.96c0,3.08-3.47,4.89-6,3.12Z"/>
  </g>
  <g>
    <g>
      <path class="cls-34" d="M890.53,214.57l-84.63-60.28c-3.08-2.16-6.82-1.74-9.4.27h0c-.19.15-.39.3-.56.47l-11.95,9.96,9.48,27.89v60.64c0,7.99,3.9,15.48,10.44,20.06l82.67,59.34-10.11,3.93,10.39,6.91,10.63-10.27h0c1.69-1.41,2.84-3.51,2.84-6.05l.65-92.81c0-7.99-3.9-15.48-10.44-20.06Z"/>
      <path class="cls-15" d="M876.99,344.31l-84.63-60.71c-6.54-4.58-10.44-12.07-10.44-20.06v-93.19c0-6.39,7.19-10.14,12.43-6.47l84.63,60.71c6.54,4.58,10.44,12.07,10.44,20.06v93.19c0,6.39-7.19,10.14-12.43,6.47Z"/>
    </g>
    <g class="cls-45">
      <path class="cls-49" d="M899.49,378.74l-115.04-82.52c-8.9-6.23-14.19-16.41-14.19-27.26v-140.29c0-8.69,9.78-13.78,16.9-8.8l115.04,82.52c8.9,6.23,14.19,16.41,14.19,27.26v140.29c0,8.69-9.78,13.78-16.9,8.8Z"/>
    </g>
    <g>
      <g>
        <ellipse class="cls-40" cx="832.49" cy="252.75" rx="29.79" ry="59.2" transform="translate(-36.51 294.63) rotate(-19.65)"/>
        <ellipse class="cls-18" cx="832.49" cy="252.75" rx="26.81" ry="53.28" transform="translate(-36.51 294.63) rotate(-19.65)"/>
        <ellipse class="cls-3" cx="832.49" cy="252.75" rx="18.09" ry="35.94" transform="translate(-36.51 294.63) rotate(-19.65)"/>
        <ellipse class="cls-39" cx="832.49" cy="252.75" rx="9.17" ry="18.21" transform="translate(-36.51 294.63) rotate(-19.65)"/>
      </g>
      <ellipse class="cls-42" cx="848.44" cy="243.84" rx="5.05" ry="10.03" transform="translate(-32.59 299.47) rotate(-19.65)"/>
    </g>
  </g>
  <g>
    <g>
      <path class="cls-63" d="M330.19,641.81c-4.98-6.69-5.17-15.55-.47-22.64l41.79-63.12c3.23-4.87,5.19-10.35,5.72-15.98l2.2-23.26c.7-7.36-7.08-12.74-14.65-10.13l-23.87,8.23c-5.58,1.92-10.66,4.97-14.84,8.92l-56.3,53.17c-6.28,5.93-15.65,8.04-23.98,5.39l-28.07-8.92c-7.19-2.28-15.27,0-20.02,5.66l-8.58,10.23c-1.22,1.45-.95,3.5.59,4.58l35.67,24.98,71.4,50,35.27,24.69c1.54,1.08,3.78.78,4.99-.67l8.58-10.23c4.74-5.65,5.06-13.38.78-19.13l-16.22-21.77Z"/>
      <g class="cls-64">
        <path class="cls-6" d="M388.01,555.77l7.21-30.58c-.2-1.99-14.41-12.12-15.76-10.63-12.47,13.83-8,25.67-14.12,35.35-1.31,2.07-4.8,7.25-5.93,9.02l-27.92,43.65c-2.1,3.83-2.36,8.39-.71,12.42l10.71,26.22c1.36,3.34,6.05,3.56,7.75.36l42.72-79.17c1.59-2.98-.54-6.57-3.94-6.63Z"/>
        <path class="cls-50" d="M322.86,696.16l15.03-20.38c1.91-2.6,2.05-6.1.34-8.83l-17.62-28.21c-4.03-6.44-3.88-14.66.37-20.95l35.91-55.51c.77-1.18,1.46-2.4,2.09-3.66,3.83-7.69,15.22-33.28,1.2-41-13.82-7.61-38.22,7.89-38.22,7.89l-65.87,68.61-40.68-14.15c-3.88-.98-7.99.2-10.77,3.08l-15.22,15.79"/>
      </g>
    </g>
    <path class="cls-41" d="M189.71,593.94l57.21,27.9c5.31,2.59,10.26,5.88,14.7,9.79l70.43,61.97"/>
    <g>
      <path class="cls-62" d="M274.18,645.05s100.62-100.35,76.14-118.5c-28.25-20.95-103.83,69.2-103.83,69.2l27.68,49.31Z"/>
      <g class="cls-67">
        <path class="cls-8" d="M338.31,563.94l-8.94-8.26c-4.24-.98-8.67.49-11.48,3.82l-30.77,31.74c-2.24,2.65-3.18,6.16-2.55,9.57l4.04,22.2c.51,2.83,4.1,3.76,5.93,1.54l45.75-54.79c1.71-2.07.64-5.21-1.97-5.82Z"/>
        <path class="cls-26" d="M306.44,538.81l-7.98-9.19c-4.11-1.44-8.67-.46-11.83,2.54l-34.06,28.18c-2.51,2.39-3.83,5.77-3.59,9.23l1.58,22.51c.2,2.87,3.66,4.19,5.72,2.18l47.37-46.07c1.92-1.87,5.32-8.49,2.79-9.38Z"/>
        <path class="cls-39" d="M271.93,557.81l33.41-15.19c2-.71,4.23-.41,5.97.81l12.77,8.94c2.19,1.54,3.25,4.24,2.67,6.86l-7.62,23.3c-1.83,5.58,1.14,11.6,6.68,13.55l22.52,7.95,25.73-37.84-3.08-32.63-29.64-25.71-69.4,49.95Z"/>
        <path class="cls-47" d="M280.23,556.81l23.42-8.62c.85-.26,1.77-.11,2.52.4l10.75,7.62c1.07.74,1.57,2.1,1.23,3.39l-5.83,22.36c-.68,2.6-.87,5.3-.58,7.97h0c.18,1.66-.31,3.32-1.36,4.59l-3.53,4.27"/>
        <path class="cls-47" d="M258.13,581.82c1.35-1.29,2.55-1.75,3-1.9,3.94-1.34,8.01.99,9.82,2.26,8.79,6.15,16.03,21.1,16.99,34.49.07,1.02,1.34,1.43,1.98.64l2.38-2.96"/>
      </g>
    </g>
    <g>
      <g>
        <g>
          <path d="M280.73,637.37h0c2-2.77,3.19-7.05,3.19-12.57,0-14.08-7.66-30.85-17.1-37.46-5.65-3.95-10.65-3.38-13.77.73l-9.17,10.09,2.33.03c-.49,2.03-.75,4.35-.75,6.96,0,14.08,7.66,30.85,17.1,37.46,2.3,1.61,4.49,2.46,6.49,2.64l1.13,3.89,9.53-10.55c.36-.36.7-.77,1.02-1.21h0Z"/>
          <g class="cls-66">
            <polygon class="cls-33" points="265.83 650.97 261.77 648.12 286.18 619.04 290.24 621.88 265.83 650.97"/>
            <polygon class="cls-33" points="265.83 637.43 261.77 634.59 286.18 605.5 290.24 608.35 265.83 637.43"/>
            <polygon class="cls-33" points="264.64 623.8 260.57 620.95 284.98 591.87 289.05 594.71 264.64 623.8"/>
            <polygon class="cls-33" points="263.44 610.17 259.38 607.32 283.79 578.23 287.85 581.08 263.44 610.17"/>
            <polygon class="cls-33" points="255.24 603.56 251.18 600.71 275.59 571.63 279.66 574.47 255.24 603.56"/>
            <polygon class="cls-33" points="241.01 605.5 236.94 602.66 261.35 573.57 265.42 576.42 241.01 605.5"/>
          </g>
        </g>
        <ellipse class="cls-39" cx="256.88" cy="623.8" rx="14.81" ry="29.43" transform="translate(-194.79 122.69) rotate(-19.65)"/>
      </g>
      <g>
        <path d="M264.45,653.69h0c2-2.77,3.19-7.05,3.19-12.57,0-14.08-7.66-30.85-17.1-37.46-5.65-3.95-10.65-3.38-13.77.73l-4.92,5.8,2.33.03c-.49,2.03-.75,4.35-.75,6.96,0,14.08,7.66,30.85,17.1,37.46,2.3,1.61,4.49,2.46,6.49,2.64l1.13,3.89,5.28-6.26c.36-.36.7-.77,1.02-1.21h0Z"/>
        <g class="cls-65">
          <polygon class="cls-33" points="253.81 662.99 249.74 660.15 274.15 631.06 278.22 633.91 253.81 662.99"/>
          <polygon class="cls-33" points="253.81 649.46 249.74 646.61 274.15 617.53 278.22 620.37 253.81 649.46"/>
          <polygon class="cls-33" points="252.61 635.82 248.55 632.98 272.96 603.89 277.02 606.74 252.61 635.82"/>
          <polygon class="cls-33" points="251.42 622.19 247.35 619.34 271.77 590.26 275.83 593.1 251.42 622.19"/>
          <polygon class="cls-33" points="243.22 615.58 239.16 612.74 263.57 583.65 267.63 586.5 243.22 615.58"/>
          <polygon class="cls-33" points="228.98 617.53 224.92 614.68 249.33 585.59 253.39 588.44 228.98 617.53"/>
        </g>
      </g>
      <ellipse class="cls-27" cx="244.85" cy="635.82" rx="14.81" ry="29.43" transform="translate(-199.53 119.35) rotate(-19.65)"/>
      <ellipse class="cls-28" cx="244.85" cy="635.82" rx="10.05" ry="19.97" transform="translate(-199.53 119.35) rotate(-19.65)"/>
    </g>
    <g id="purple_icon">
      <g class="cls-71">
        <g class="cls-70">
          <path class="cls-43" d="M299.78,609.34c.6-.71,1.08-2,1.08-2.87l-2.16,2.58c0,.87.48,1.01,1.08.29"/>
          <path class="cls-43" d="M297.36,608.68c-.37.44-.67,1.23-.67,1.77l1.34-1.59c0-.54-.3-.62-.67-.18"/>
          <path class="cls-43" d="M302.21,602.91c-.37.44-.67,1.23-.67,1.77l1.34-1.59c0-.54-.3-.62-.67-.18"/>
          <path class="cls-43" d="M299.78,600.91c.28-.33.5-.92.5-1.33s-.22-.46-.5-.14-.5.92-.5,1.33.22.46.5.14"/>
          <path class="cls-43" d="M304.46,601.06c-.11-.98-.28-1.91-.4-2.51-.14-.72-.66-.74-1.29-.05-.62.68-1.63,1.82-2.99,3.44s-2.37,2.9-2.99,3.69c-.63.8-1.15,2.06-1.29,3.13-.12.89-.29,2.22-.4,3.47-.08.85-.14,1.81-.18,2.87-.03.59.1.98.36,1.09.26.11.61-.06.99-.49.84-.95,2.14-2.42,3.52-4.06s2.67-3.25,3.52-4.32c.38-.48.74-1.15.99-1.87.26-.72.38-1.41.36-1.94-.05-.95-.11-1.77-.18-2.43M303.79,605.37c-.14.38-.32.73-.52.99-.84,1.05-2.12,2.65-3.48,4.28s-2.65,3.09-3.48,4.03c-.2.23-.39.32-.52.26-.13-.06-.2-.26-.19-.58.04-1.03.1-1.97.18-2.78.11-1.21.27-2.51.39-3.38.08-.56.35-1.23.68-1.65.61-.78,1.61-2.04,2.95-3.63s2.34-2.73,2.95-3.39c.33-.36.6-.35.68.03.12.59.28,1.49.39,2.45.07.64.13,1.44.18,2.36.01.28-.05.64-.19,1.02"/>
        </g>
      </g>
    </g>
    <g>
      <g>
        <path class="cls-5" d="M288.75,654.28l6.32-7.57c2.77-3.32,7.02-5.02,11.32-4.53l3.12.36c1.11.13,2.17.53,3.09,1.18l7.89,5.59c1.37.97,1.62,2.91.54,4.19l-20.08,23.9-12.2-23.11Z"/>
        <path class="cls-11" d="M320.62,651.4l-4.99-1.16c-1.31-.3-2.67.15-3.54,1.18l-7.24,8.39c-.69.82-.98,1.9-.79,2.95l1.24,6.84c.16.87,1.26,1.16,1.83.48l14.1-16.89c.53-.64.2-1.61-.61-1.79Z"/>
      </g>
      <g>
        <g>
          <path d="M301.77,676.19h0c.92-1.27,1.46-3.23,1.46-5.75,0-6.44-3.5-14.12-7.83-17.14-2.58-1.81-4.87-1.55-6.3.33l-2.25,2.65h1.07c-.22.94-.34,2.01-.34,3.2,0,6.44,3.5,14.12,7.83,17.14,1.05.74,2.05,1.13,2.97,1.21l.52,1.78,2.41-2.86c.16-.17.32-.35.47-.55h0Z"/>
          <g class="cls-68">
            <polygon class="cls-33" points="296.9 680.45 295.04 679.15 306.21 665.84 308.07 667.14 296.9 680.45"/>
            <polygon class="cls-33" points="296.9 674.26 295.04 672.96 306.21 659.65 308.07 660.95 296.9 674.26"/>
            <polygon class="cls-33" points="296.35 668.02 294.49 666.72 305.66 653.41 307.52 654.71 296.35 668.02"/>
            <polygon class="cls-33" points="295.8 661.78 293.94 660.48 305.11 647.17 306.97 648.47 295.8 661.78"/>
            <polygon class="cls-33" points="292.05 658.76 290.19 657.46 301.36 644.15 303.22 645.45 292.05 658.76"/>
            <polygon class="cls-33" points="285.54 659.65 283.68 658.34 294.85 645.03 296.71 646.34 285.54 659.65"/>
          </g>
        </g>
        <ellipse class="cls-29" cx="292.8" cy="668.02" rx="6.78" ry="13.47" transform="translate(-207.56 137.34) rotate(-19.65)"/>
        <ellipse class="cls-31" cx="292.8" cy="668.02" rx="4.6" ry="9.14" transform="translate(-207.56 137.34) rotate(-19.65)"/>
      </g>
    </g>
    <g>
      <g>
        <path class="cls-13" d="M205.56,596.68l6.32-7.57c2.77-3.32,7.02-5.02,11.32-4.53l3.12.36c1.11.13,2.17.53,3.09,1.18l7.89,5.59c1.37.97,1.62,2.91.54,4.19l-20.08,23.9-12.2-23.11Z"/>
        <path class="cls-9" d="M237.43,593.8l-4.99-1.16c-1.31-.3-2.67.15-3.54,1.18l-7.24,8.39c-.69.82-.98,1.9-.79,2.95l1.24,6.84c.16.87,1.26,1.16,1.83.48l14.1-16.89c.53-.64.2-1.61-.61-1.79Z"/>
      </g>
      <g>
        <g>
          <path d="M218.57,618.59h0c.92-1.27,1.46-3.23,1.46-5.75,0-6.44-3.5-14.12-7.83-17.14-2.58-1.81-4.87-1.55-6.3.33l-2.25,2.65h1.07c-.22.94-.34,2.01-.34,3.2,0,6.44,3.5,14.12,7.83,17.14,1.05.74,2.05,1.13,2.97,1.21l.52,1.78,2.41-2.86c.16-.17.32-.35.47-.55h0Z"/>
          <g class="cls-69">
            <polygon class="cls-33" points="213.7 622.85 211.84 621.55 223.02 608.24 224.88 609.54 213.7 622.85"/>
            <polygon class="cls-33" points="213.7 616.65 211.84 615.35 223.02 602.04 224.88 603.35 213.7 616.65"/>
            <polygon class="cls-33" points="213.16 610.42 211.3 609.11 222.47 595.8 224.33 597.11 213.16 610.42"/>
            <polygon class="cls-33" points="212.61 604.18 210.75 602.87 221.92 589.57 223.78 590.87 212.61 604.18"/>
            <polygon class="cls-33" points="208.86 601.15 207 599.85 218.17 586.54 220.03 587.84 208.86 601.15"/>
            <polygon class="cls-33" points="202.35 602.04 200.49 600.74 211.66 587.43 213.52 588.73 202.35 602.04"/>
          </g>
        </g>
        <ellipse class="cls-30" cx="209.61" cy="610.42" rx="6.78" ry="13.47" transform="translate(-193.04 106.02) rotate(-19.65)"/>
        <ellipse class="cls-32" cx="209.61" cy="610.42" rx="4.6" ry="9.14" transform="translate(-193.04 106.02) rotate(-19.65)"/>
      </g>
    </g>
    <g>
      <path class="cls-12" d="M269.75,716.01l29.91-35.77c.18-.18.35-.38.51-.6h0s0,0,0,0c1-1.39,1.59-3.52,1.59-6.29,0-7.04-3.83-15.42-8.55-18.72-2.82-1.98-5.32-1.69-6.88.36l-35.37,42.12"/>
      <path class="cls-4" d="M282.53,688.87l12.44-14.88c.07-.08.15-.16.21-.25h0s0,0,0,0c.42-.58.66-1.47.66-2.61,0-2.93-1.59-6.41-3.55-7.79-1.17-.82-2.21-.7-2.86.15l-14.71,17.52"/>
    </g>
    <g>
      <path class="cls-10" d="M186.09,657.19l29.91-35.77c.18-.18.35-.38.51-.6h0s0,0,0,0c1-1.39,1.59-3.52,1.59-6.29,0-7.04-3.83-15.42-8.55-18.72-2.82-1.98-5.32-1.69-6.88.36l-35.37,42.12"/>
      <path class="cls-20" d="M198.87,630.06l12.44-14.88c.07-.08.15-.16.21-.25h0s0,0,0,0c.42-.58.66-1.47.66-2.61,0-2.93-1.59-6.41-3.55-7.79-1.17-.82-2.21-.7-2.86.15l-14.71,17.52"/>
    </g>
    <g>
      <path class="cls-21" d="M187.18,755.59l74.57-89.2c.45-.45.87-.95,1.27-1.5h0s0,0,0,0c2.5-3.45,3.97-8.79,3.97-15.67,0-17.54-9.54-38.44-21.31-46.69-7.04-4.93-13.28-4.21-17.16.91l-88.19,105.02"/>
      <path class="cls-19" d="M219.05,687.93l31.01-37.1c.19-.19.36-.4.53-.63h0s0,0,0,0c1.04-1.44,1.65-3.65,1.65-6.52,0-7.3-3.97-15.99-8.86-19.42-2.93-2.05-5.52-1.75-7.14.38l-36.68,43.68"/>
    </g>
  </g>
</svg>