<svg xmlns="http://www.w3.org/2000/svg" width="85" height="25" viewBox="0 0 85 25" fill="none">
<path d="M16.055 1.74337C16.055 2.42998 15.4915 2.9866 14.7962 2.9866C14.101 2.9866 13.5374 2.42998 13.5374 1.74337C13.5374 1.05676 14.101 0.5 14.7962 0.5C15.4915 0.5 16.055 1.05676 16.055 1.74337Z" fill="white"/>
<path d="M5.40952 14.5537C5.40952 13.4456 6.31909 12.5471 7.44126 12.5471C8.56343 12.5471 9.47301 13.4456 9.47301 14.5537H5.40952Z" fill="white"/>
<path d="M11.5057 16.5605C11.5057 18.3552 12.9789 19.8103 14.7963 19.8103C16.6135 19.8103 18.0868 18.3552 18.0868 16.5605H11.5057Z" fill="white"/>
<path d="M22.1651 12.5475C21.0429 12.5475 20.1333 13.446 20.1333 14.5541H24.1968C24.1968 13.446 23.2873 12.5475 22.1651 12.5475Z" fill="white"/>
<path fill-rule="evenodd" clip-rule="evenodd" d="M29.0271 14.2727C28.6855 11.9818 28.1742 9.66488 27.8054 8.12488C27.3658 6.2897 25.7901 4.97799 23.8847 4.86079C22.014 4.74563 18.9187 4.60822 14.7962 4.60822C10.6735 4.60822 7.57817 4.74563 5.70779 4.86079C3.80207 4.97799 2.22644 6.2897 1.78696 8.12488C1.41816 9.66415 0.906981 11.9802 0.565118 14.2727C0.33397 15.8226 0.147138 17.6531 0.00962665 19.7132C-0.0672263 20.8612 0.318069 21.9661 1.09411 22.8243C1.87132 23.6837 2.94138 24.1865 4.10742 24.2404C6.66875 24.3588 10.6022 24.5 14.7962 24.5C18.9898 24.5 22.9235 24.3588 25.4849 24.2404C26.651 24.1865 27.721 23.6837 28.4981 22.8243C29.2741 21.9663 29.6594 20.8613 29.5826 19.7132C29.4452 17.6531 29.2582 15.8226 29.0271 14.2727ZM26.9827 21.4878C26.572 21.9417 26.0064 22.2074 25.3899 22.236C22.85 22.3534 18.9503 22.4932 14.796 22.4932C10.6415 22.4932 6.7419 22.3534 4.20222 22.236C3.58563 22.2074 3.01998 21.9417 2.60921 21.4876C2.19962 21.0347 1.9963 20.4513 2.03679 19.8452C2.17077 17.8385 2.35186 16.0621 2.57505 14.5649C2.90632 12.3433 3.40454 10.0879 3.76407 8.58669C3.99595 7.61785 4.82794 6.92542 5.83394 6.86362C7.67562 6.75021 10.7256 6.61498 14.796 6.61498C18.8661 6.61498 21.9162 6.75021 23.7582 6.86362C24.7642 6.92542 25.5959 7.61785 25.8279 8.58669C26.1878 10.0885 26.6858 12.3447 27.0168 14.5649C27.24 16.0621 27.4212 17.8385 27.5552 19.8452C27.5956 20.4514 27.3922 21.0348 26.9827 21.4878Z" fill="white"/>
<path fill-rule="evenodd" clip-rule="evenodd" d="M40.174 20.0834C42.3057 20.0834 44.1815 18.2307 44.1815 15.7885C44.1815 13.3464 42.3057 11.4939 40.174 11.4939C38.554 11.4939 37.7013 12.6727 37.7013 12.6727V8.12542H35.3991V19.915H37.7013V18.9044C37.7013 18.9044 38.554 20.0834 40.174 20.0834ZM39.7479 13.5148C40.8562 13.5148 41.7942 14.4412 41.7942 15.7885C41.7942 17.136 40.8562 18.0624 39.7479 18.0624C38.6394 18.0624 37.7014 17.136 37.7014 15.7885C37.7014 14.4412 38.6394 13.5148 39.7479 13.5148Z" fill="white"/>
<path d="M45.9719 19.915H48.2741V11.6623H45.9719V19.915Z" fill="white"/>
<path d="M47.0803 10.5675C46.313 10.5675 45.8014 10.0622 45.8014 9.30421C45.8014 8.54621 46.313 8.04107 47.0803 8.04107C47.9329 8.04107 48.4447 8.54621 48.4447 9.30421C48.4447 10.0622 47.9329 10.5675 47.0803 10.5675Z" fill="white"/>
<path d="M53.646 9.22005H51.5995V10.7359C51.5995 11.4096 51.1731 11.8307 50.6615 11.8307H49.8942V13.8517H51.3438V17.2202C51.3438 19.1571 52.2816 20.0834 53.987 20.0834C54.8397 20.0834 55.5218 19.8308 55.5218 19.8308V17.8939C55.5218 17.8939 55.1807 18.0624 54.6692 18.0624C54.0722 18.0624 53.646 17.6413 53.646 17.1358V13.8517H55.3512V11.8307H53.646V9.22005Z" fill="white"/>
<path d="M62.513 13.8516C62.513 13.8516 62.2571 13.7676 61.7457 13.7676C60.5518 13.7676 59.7844 14.5255 59.7844 15.957V19.9149H57.4822V11.6622H59.7844V12.6728C59.7844 12.6728 60.6372 11.5779 62.1719 11.5779H62.513V13.8516Z" fill="white"/>
<path d="M66.1792 19.915H63.877V11.6623H66.1792V19.915Z" fill="white"/>
<path d="M63.7067 9.30421C63.7067 10.0622 64.2183 10.5675 64.9857 10.5675C65.8384 10.5675 66.35 10.0622 66.35 9.30421C66.35 8.54621 65.8384 8.04107 64.9857 8.04107C64.2183 8.04107 63.7067 8.54621 63.7067 9.30421Z" fill="white"/>
<path d="M73.086 14.1044C73.086 14.1044 72.5744 13.4307 71.7218 13.4307C71.0397 13.4307 70.6986 13.7676 70.6986 14.1044C70.6986 14.5693 71.2955 14.7592 72.0184 14.9892C73.1285 15.3423 74.5356 15.79 74.5356 17.4729C74.5356 18.9044 73.3418 20.0834 71.2102 20.0834C68.8226 20.0834 67.7995 18.5675 67.7995 18.5675L69.0785 17.3045C69.0785 17.3045 69.7607 18.2307 70.8691 18.2307C71.6366 18.2307 71.9776 17.894 71.9776 17.4729C71.9776 16.9614 71.3485 16.7592 70.5998 16.5185C69.4994 16.1648 68.1406 15.7281 68.1406 14.1044C68.1406 12.8411 69.5049 11.4939 71.3807 11.4939C73.3418 11.4939 74.2798 12.7569 74.2798 12.7569L73.086 14.1044Z" fill="white"/>
<path fill-rule="evenodd" clip-rule="evenodd" d="M80.333 18.1466C79.054 18.1466 78.2865 17.3887 78.1161 16.5465H84.1701C84.1701 16.5465 84.2553 16.2097 84.2553 15.6201C84.2553 13.2623 82.4647 11.4939 80.0771 11.4939C77.6897 11.4939 75.7286 13.4307 75.7286 15.7885C75.7286 18.1466 77.6897 20.0834 80.1624 20.0834C82.4647 20.0834 83.7437 18.6517 83.7437 18.6517L82.55 17.136C82.55 17.136 81.7825 18.1466 80.333 18.1466ZM81.9533 14.9464H78.1162C78.3719 14.1044 79.0542 13.4307 80.0773 13.4307C81.1005 13.4307 81.7826 14.1044 81.9533 14.9464Z" fill="white"/>
</svg>