<svg width="16" height="16" viewBox="0 0 16 16" fill="none" xmlns="http://www.w3.org/2000/svg">
<path fill-rule="evenodd" clip-rule="evenodd" d="M7.99957 1.2C4.13432 1.2 1 4.33388 1 8.20043C1 11.2926 3.00546 13.916 5.78742 14.842C6.13763 14.9061 6.26525 14.6899 6.26525 14.5043C6.26525 14.3384 6.25924 13.898 6.2558 13.314C4.30878 13.7368 3.89797 12.3755 3.89797 12.3755C3.57956 11.5668 3.12063 11.3519 3.12063 11.3519C2.48508 10.9175 3.16875 10.9261 3.16875 10.9261C3.87133 10.9759 4.24088 11.6476 4.24088 11.6476C4.86525 12.7171 5.87894 12.4082 6.27815 12.2294C6.34174 11.7769 6.52222 11.4684 6.72247 11.2935C5.1682 11.1169 3.53401 10.5161 3.53401 7.83388C3.53401 7.06986 3.80688 6.44506 4.25463 5.95561C4.18244 5.77857 3.94223 5.06697 4.32296 4.10313C4.32296 4.10313 4.9108 3.91491 6.24807 4.82075C6.80626 4.66519 7.40528 4.58784 8.00043 4.58483C8.59472 4.58784 9.19374 4.66519 9.75279 4.82075C11.0892 3.91491 11.6758 4.10313 11.6758 4.10313C12.0578 5.06697 11.8176 5.77857 11.7454 5.95561C12.194 6.44506 12.4651 7.06986 12.4651 7.83388C12.4651 10.523 10.8284 11.1147 9.26894 11.2879C9.52032 11.504 9.7442 11.9312 9.7442 12.5843C9.7442 13.5198 9.7356 14.2748 9.7356 14.5043C9.7356 14.6916 9.86151 14.9095 10.2169 14.8412C12.9958 13.9134 15 11.2918 15 8.20043C15 4.33388 11.8657 1.2 7.99957 1.2Z" fill="#2B0E3F"/>
</svg>
