<svg width="16" height="16" viewBox="0 0 16 16" fill="none" xmlns="http://www.w3.org/2000/svg">
<path d="M5.83008 6.99414L5.5918 7.5918L4.99414 7.83008L3.31934 8.5L4.99414 9.16992L5.5918 9.4082L5.83008 10.0059L6.5 11.6797L7.16992 10.0059L7.4082 9.4082L8.00586 9.16992L9.67969 8.5L8.00586 7.83008L7.4082 7.5918L7.16992 6.99414L6.5 5.31934L5.83008 6.99414ZM12 8.51074L11.9883 8.66113C11.9355 9.00767 11.7034 9.30555 11.3711 9.43848L8.5625 10.5625L7.43848 13.3711C7.28665 13.7507 6.91954 13.9999 6.51074 14H6.48926C6.13172 13.9999 5.80564 13.8095 5.62793 13.5078L5.56152 13.3711L4.4375 10.5625L1.62891 9.43848C1.29659 9.30555 1.06446 9.00767 1.01172 8.66113L1 8.51074V8.48926C1.00011 8.08046 1.24933 7.71335 1.62891 7.56152L4.4375 6.4375L5.56152 3.62891C5.71335 3.24933 6.08046 3.00011 6.48926 3H6.51074C6.91954 3.00011 7.28665 3.24933 7.43848 3.62891L8.5625 6.4375L11.3711 7.56152C11.7507 7.71335 11.9999 8.08046 12 8.48926V8.51074Z" fill="currentColor"/>
<path d="M13.4375 4.4375L12.9287 5.70996L12.8975 5.77246C12.8154 5.91185 12.6651 6 12.5 6C12.3349 6 12.1846 5.91185 12.1025 5.77246L12.0713 5.70996L11.5625 4.4375L10.29 3.92871C10.1148 3.8586 10 3.68872 10 3.5C10 3.31128 10.1148 3.1414 10.29 3.07129L11.5625 2.5625L12.0713 1.29004C12.1414 1.11482 12.3113 1 12.5 1C12.6887 1 12.8586 1.11482 12.9287 1.29004L13.4375 2.5625L14.71 3.07129C14.8852 3.1414 15 3.31128 15 3.5C15 3.68872 14.8852 3.8586 14.71 3.92871L14.3008 4.0918L13.4375 4.4375Z" fill="currentColor"/>
</svg>
