<svg xmlns="http://www.w3.org/2000/svg" width="24" height="24" viewBox="0 0 24 24" fill="none">
<path fill-rule="evenodd" clip-rule="evenodd" d="M17 20C17 21.1046 16.1046 22 15 22H4C2.89543 22 2 21.1046 2 20V9C2 7.89543 2.89543 7 4 7H15C16.1046 7 17 7.89543 17 9V20ZM15 20H4V9H15V20Z" fill="currentColor"/>
<path d="M19.8571 17H18V14.8571H19.8571V4.14286H9.14286V6H7V4.14286C7 2.95939 7.95939 2 9.14286 2H19.8571C21.0406 2 22 2.95939 22 4.14286V14.8571C22 16.0406 21.0406 17 19.8571 17Z" fill="currentColor"/>
</svg>