<svg xmlns="http://www.w3.org/2000/svg" width="16" height="16" viewBox="0 0 16 16" fill="none">
<path d="M3.79622 4.71895C4.15503 4.36662 4.55894 4.0586 5 3.80396L5.74958 5.10226C4.40476 5.88039 3.5 7.33454 3.5 9C3.5 10.1245 3.91243 11.1526 4.59427 11.9414C4.74155 12.1119 4.90197 12.2718 5.07446 12.4194C5.80507 13.045 6.73855 13.4406 7.76263 13.4938C7.84153 13.498 7.92068 13.5001 8 13.5001C8.07933 13.5001 8.15848 13.498 8.23737 13.4938C9.2598 13.4407 10.1919 13.0463 10.922 12.4224C11.0973 12.2727 11.2602 12.1103 11.4095 11.937C12.0797 11.1596 12.4886 10.1507 12.4998 9.04647C12.5001 9.01876 12.5001 8.99105 12.4999 8.96335C12.4867 7.31322 11.5854 5.87468 10.2504 5.10226L11 3.80396C11.4411 4.0586 11.845 4.36662 12.2038 4.71895C12.7755 5.28036 13.2327 5.95427 13.5433 6.70401C14.0487 7.92427 14.1374 9.27722 13.7956 10.553C13.4537 11.8288 12.7004 12.9562 11.6526 13.7602C10.6047 14.5643 9.32081 15.0001 8 15.0001C6.6792 15.0001 5.3953 14.5643 4.34743 13.7602C3.29957 12.9562 2.5463 11.8288 2.20445 10.553C1.8626 9.27722 1.95127 7.92427 2.45672 6.70401C2.76728 5.95427 3.2245 5.28036 3.79622 4.71895Z" fill="currentColor"/>
<path fill-rule="evenodd" clip-rule="evenodd" d="M7.25 6V1H8.75V6H7.25Z" fill="currentColor"/>
</svg>