<svg xmlns="http://www.w3.org/2000/svg" width="16" height="16" viewBox="0 0 16 16" fill="none">
<path d="M4.38561 1.39999L7.67646 4.69084L4.38561 7.98169L1.09476 4.69084L4.38561 1.39999Z" fill="currentColor"/>
<path d="M8 5.01438L4.70915 8.30523L8 11.5961L11.2908 8.30523L8 5.01438Z" fill="currentColor"/>
<path d="M4.15683 11.3673V8.39999L1 5.24316V8.21047L4.15683 11.3673Z" fill="currentColor"/>
<path d="M4.61439 8.85755V11.8249L7.77122 14.9817V12.0144L4.61439 8.85755Z" fill="currentColor"/>
<path d="M8.22878 12.0144V14.9817L11.3856 11.8249V8.85755L8.22878 12.0144Z" fill="currentColor"/>
<path d="M15 8.21047L11.8432 11.3673V8.39999L15 5.24316V8.21047Z" fill="currentColor"/>
<path d="M11.6144 7.98169L14.9052 4.69084L11.6144 1.39999L8.32354 4.69084L11.6144 7.98169Z" fill="currentColor"/>
</svg>