<svg width="16" height="16" viewBox="0 0 16 16" fill="none" xmlns="http://www.w3.org/2000/svg">
<path d="M12.5 1C13.3284 1 14 1.67157 14 2.5V13.5L13.9922 13.6533C13.9205 14.3593 13.3593 14.9205 12.6533 14.9922L12.5 15H5.5L5.34668 14.9922C4.64069 14.9205 4.07949 14.3593 4.00781 13.6533L4 13.5V9H5.5V13.5H12.5V2.5H5.5V4.5H4V2.5C4 1.67157 4.67157 1 5.5 1H12.5Z" fill="currentColor"/>
<path d="M9.75 12.5H8.25V11H9.75V12.5Z" fill="currentColor"/>
<path d="M10.5605 6.75L7.53027 9.78027L6.46973 8.71973L7.68945 7.5H3.25V6H7.68945L6.46973 4.78027L7.53027 3.71973L10.5605 6.75Z" fill="currentColor"/>
<path d="M2.5 7.5H1V6H2.5V7.5Z" fill="currentColor"/>
</svg>
