<svg xmlns="http://www.w3.org/2000/svg" width="16" height="16" viewBox="0 0 16 16" fill="none">
<path d="M14.7362 7.37647L8.62353 1.2643C8.53985 1.18052 8.44048 1.11405 8.3311 1.0687C8.22172 1.02334 8.10446 1 7.98605 1C7.86764 1 7.75039 1.02334 7.641 1.0687C7.53162 1.11405 7.43225 1.18052 7.34858 1.2643L6.07911 2.53375L7.68895 4.14357C7.87821 4.0793 8.08169 4.06926 8.27636 4.1146C8.47103 4.15995 8.64913 4.25886 8.79051 4.40015C8.93265 4.54248 9.03191 4.7219 9.07698 4.91794C9.12205 5.11398 9.11111 5.31874 9.04541 5.50886L10.5969 7.06047C10.787 6.99441 10.9918 6.98327 11.188 7.02833C11.3841 7.07339 11.5636 7.17282 11.7058 7.31522C11.8054 7.41482 11.8844 7.53307 11.9383 7.66322C11.9923 7.79337 12.02 7.93286 12.02 8.07373C12.02 8.21461 11.9923 8.3541 11.9383 8.48425C11.8844 8.6144 11.8054 8.73265 11.7058 8.83225C11.5045 9.03345 11.2315 9.14647 10.9469 9.14647C10.6623 9.14647 10.3894 9.03345 10.1881 8.83225C10.0383 8.68252 9.93616 8.49178 9.89462 8.28407C9.85308 8.07637 9.87399 7.86102 9.9547 7.66519L8.50728 6.21824V10.0267C8.66005 10.1022 8.79265 10.213 8.89408 10.3499C8.99552 10.4868 9.06287 10.6459 9.09057 10.8141C9.11827 10.9822 9.10552 11.1545 9.05336 11.3167C9.00121 11.4789 8.91116 11.6264 8.79067 11.7469C8.69106 11.8465 8.57281 11.9255 8.44266 11.9794C8.31251 12.0333 8.17302 12.0611 8.03214 12.0611C7.89126 12.0611 7.75177 12.0333 7.62162 11.9794C7.49147 11.9255 7.37322 11.8465 7.27361 11.7469C7.17397 11.6473 7.09492 11.529 7.04099 11.3988C6.98706 11.2687 6.9593 11.1292 6.9593 10.9883C6.9593 10.8474 6.98706 10.7079 7.04099 10.5777C7.09492 10.4475 7.17397 10.3293 7.27361 10.2297C7.3741 10.129 7.49364 10.0492 7.62526 9.9952V6.15166C7.49363 6.09792 7.37407 6.0184 7.27361 5.91779C7.12317 5.76715 7.02089 5.57521 6.97976 5.36632C6.93864 5.15744 6.96052 4.94105 7.04264 4.74463L5.45535 3.15736L1.26422 7.34782C1.18045 7.43155 1.11401 7.53097 1.06867 7.64039C1.02333 7.7498 1 7.86708 1 7.98552C1 8.10396 1.02333 8.22123 1.06867 8.33065C1.11401 8.44007 1.18045 8.53948 1.26422 8.62322L7.37707 14.7361C7.54619 14.9051 7.77548 15 8.01454 15C8.25361 15 8.48289 14.9051 8.65202 14.7361L14.7362 8.65186C14.9051 8.48262 15 8.25327 15 8.01416C15 7.77505 14.9051 7.54571 14.7362 7.37647Z" fill="currentColor"/>
</svg>