<svg xmlns="http://www.w3.org/2000/svg" width="16" height="16" viewBox="0 0 16 16" fill="none">
<path fill-rule="evenodd" clip-rule="evenodd" d="M2.75 3.5C2.75 2.25736 3.75736 1.25 5 1.25H12.5C12.9142 1.25 13.25 1.58579 13.25 2V13C13.25 13.4142 12.9142 13.75 12.5 13.75H10V12.25H11.75V10.75H5C4.58579 10.75 4.25 11.0858 4.25 11.5C4.25 11.9142 4.58579 12.25 5 12.25V13.75C3.75736 13.75 2.75 12.7426 2.75 11.5V3.5ZM11.75 2.75V9.25H5C4.73702 9.25 4.48458 9.29512 4.25 9.37803V3.5C4.25 3.08579 4.58579 2.75 5 2.75H11.75Z" fill="currentColor"/>
<path d="M6 15V12H9L9 15L7.5 14.1L6 15Z" fill="currentColor"/>
</svg>