<svg xmlns="http://www.w3.org/2000/svg" width="16" height="16" viewBox="0 0 16 16" fill="none">
<path d="M10.4685 6.58565L9.53149 5.41435L7.51922 7.02417L6.49121 6.13323L5.50882 7.26677L7.48081 8.97583L10.4685 6.58565Z" fill="currentColor"/>
<path fill-rule="evenodd" clip-rule="evenodd" d="M8.58959 12.3251C8.21381 12.4856 7.78616 12.4856 7.41038 12.3251L5.82354 15.0736L1.92642 12.8236L3.70761 9.73848L3.67626 8.79096L2.95937 8.025C2.41957 7.44827 2.41957 6.55173 2.95937 5.97499L3.67626 5.20904L3.71095 4.16051C3.73707 3.371 4.37102 2.73705 5.16053 2.71093L6.20906 2.67624L6.97501 1.95935C7.55174 1.41956 8.44828 1.41956 9.02502 1.95935L9.79097 2.67624L10.8395 2.71093C11.629 2.73705 12.263 3.371 12.2891 4.16051L12.3238 5.20904L13.0407 5.97499C13.5805 6.55173 13.5805 7.44827 13.0407 8.025L12.3238 8.79096L12.2924 9.73859L14.0735 12.8236L10.1764 15.0736L8.58959 12.3251ZM6.82231 9.84322L5.21013 9.78988L5.15679 8.1777L4.05452 7L5.15679 5.82229L5.21013 4.21011L6.82231 4.15677L8.00001 3.0545L9.17772 4.15677L10.7899 4.21011L10.8432 5.8223L11.9455 7L10.8432 8.1777L10.7899 9.78988L9.17772 9.84322L8.00001 10.9455L6.82231 9.84322ZM9.76016 11.3526L10.7255 13.0245L12.0245 12.2745L11.3851 11.1671C11.217 11.2398 11.0329 11.2827 10.8395 11.2891L9.79097 11.3238L9.76016 11.3526ZM6.20905 11.3238L6.23982 11.3526L5.2745 13.0245L3.97546 12.2745L4.61487 11.167C4.78298 11.2398 4.96709 11.2827 5.16053 11.2891L6.20905 11.3238Z" fill="currentColor"/>
</svg>