<svg xmlns="http://www.w3.org/2000/svg" width="16" height="16" viewBox="0 0 16 16" fill="none">
<path d="M10 6H6V10H10V6Z" fill="currentColor"/>
<path fill-rule="evenodd" clip-rule="evenodd" d="M6.75 1V3H9.25V1H10.75V3H11.5C12.3284 3 13 3.67157 13 4.5V5.25H15V6.75H13V9.25H15V10.75H13V11.5C13 12.3284 12.3284 13 11.5 13H10.75V15H9.25V13H6.75V15H5.25V13H4.5C3.67157 13 3 12.3284 3 11.5L3 10.75H1V9.25H3L3 6.75H1V5.25H3V4.5C3 3.67157 3.67157 3 4.5 3H5.25V1H6.75ZM4.5 4.5H11.5V11.5H4.5L4.5 4.5Z" fill="currentColor"/>
</svg>