<svg xmlns="http://www.w3.org/2000/svg" width="16" height="16" viewBox="0 0 16 16" fill="none">
<path fill-rule="evenodd" clip-rule="evenodd" d="M1 2.5C1 1.67157 1.67157 1 2.5 1H5.5C6.32843 1 7 1.67157 7 2.5V5.5C7 6.32843 6.32843 7 5.5 7H2.5C1.67157 7 1 6.32843 1 5.5V2.5ZM2.5 2.5H5.5V5.5H2.5L2.5 2.5Z" fill="currentColor"/>
<path fill-rule="evenodd" clip-rule="evenodd" d="M1 10.5C1 9.67157 1.67157 9 2.5 9H5.5C6.32843 9 7 9.67157 7 10.5V13.5C7 14.3284 6.32843 15 5.5 15H2.5C1.67157 15 1 14.3284 1 13.5V10.5ZM2.5 10.5H5.5V13.5H2.5L2.5 10.5Z" fill="currentColor"/>
<path fill-rule="evenodd" clip-rule="evenodd" d="M10.5 1C9.67157 1 9 1.67157 9 2.5V5.5C9 6.32843 9.67157 7 10.5 7H13.5C14.3284 7 15 6.32843 15 5.5V2.5C15 1.67157 14.3284 1 13.5 1H10.5ZM13.5 2.5H10.5V5.5H13.5V2.5Z" fill="currentColor"/>
<path fill-rule="evenodd" clip-rule="evenodd" d="M9 10.5C9 9.67157 9.67157 9 10.5 9H13.5C14.3284 9 15 9.67157 15 10.5V13.5C15 14.3284 14.3284 15 13.5 15H10.5C9.67157 15 9 14.3284 9 13.5V10.5ZM10.5 10.5H13.5V13.5H10.5V10.5Z" fill="currentColor"/>
</svg>