<svg xmlns="http://www.w3.org/2000/svg" width="16" height="16" viewBox="0 0 16 16" fill="none">
<path d="M14.3768 2.76937L14.37 2.77102L14.3668 2.76937H14.3768Z" fill="currentColor"/>
<path d="M14.37 2.77102C14.4338 2.80308 14.6245 2.90372 14.9899 3.11108C14.7587 3.96535 14.3567 4.56837 14.1758 4.76937C14.1579 4.76043 14.1349 4.74926 14.1074 4.73587C13.9801 4.67397 13.755 4.56453 13.4823 4.40756C13.3818 3.92515 12.6783 3.74425 12.2964 3.88495C11.8542 4.04575 11.4823 4.72917 11.3718 4.95028C11.2612 5.18143 7.15068 14.4377 7.08033 14.5985C6.97982 14.8297 6.78887 14.9905 6.55771 15.0608C6.32656 15.1412 6.06525 15.101 5.85419 14.9804L5.62304 14.8397C5.35168 14.6789 5.20093 14.3875 5.20093 14.086C5.20093 13.9452 5.24113 13.8045 5.31148 13.6739C5.73359 12.9 10.0552 4.96033 10.2361 4.47791C10.3467 4.20656 10.4271 3.9754 10.4673 3.8146C10.618 3.22163 10.5477 2.32716 10.216 2.00555C9.42203 1.22163 7.9346 1.31208 7.9346 1.31208L7.9547 0.990477C7.9547 0.970376 8.28636 0.950276 8.30646 0.950276C8.67831 0.920125 9.04012 0.900024 9.41198 0.900024C9.78384 0.900024 10.1658 0.900024 10.5376 1.00053C10.8693 1.09098 11.1909 1.21158 11.5125 1.33219C12.2462 1.62364 12.8994 1.9352 13.0803 2.02565C13.1105 2.1161 13.1708 2.25681 13.2612 2.39751C13.3617 2.55832 13.4622 2.66887 13.5627 2.72917C13.7416 2.82856 14.1663 2.81983 14.37 2.77102Z" fill="currentColor"/>
<path fill-rule="evenodd" clip-rule="evenodd" d="M6.39699 10.0859H2.74874C2.44724 10.0859 2.20603 9.84469 2.20603 9.54318C2.20603 9.24167 2.44724 8.99042 2.74874 8.99042H4.15578L5.94472 5.88489L5.39196 4.91002C5.24121 4.63866 5.32161 4.307 5.59297 4.15625C5.85427 4.00549 6.18593 4.09595 6.34673 4.35725L6.57789 4.77936L6.82915 4.35725C6.9799 4.09595 7.31156 4.00549 7.58291 4.15625C7.84422 4.307 7.93467 4.64871 7.78392 4.91002L5.42211 8.99042H6.9799C7.16613 8.64455 7.44975 8.12653 7.76196 7.55629C8.51119 6.18783 9.42507 4.51864 9.55276 4.2065C10.1055 3.00047 10.0352 2.00549 7.67337 2.00549H3.44221C2.09548 2.00549 1 3.10097 1 4.4477V11.6537C1 13.0005 2.09548 14.0859 3.44221 14.0859C3.44221 14.0859 4.22613 14.0959 4.65829 13.312C5.0804 12.5382 5.60301 11.5733 6.12563 10.5884C6.21607 10.4276 6.30654 10.2567 6.39699 10.0859ZM3.93467 11.5733C3.78392 11.8346 3.44221 11.9251 3.1809 11.7743C2.9196 11.6236 2.82915 11.2919 2.9799 11.0206L3.37186 10.3472C3.81407 10.2065 4.17588 10.3171 4.45729 10.6588L3.93467 11.5733Z" fill="currentColor"/>
<path d="M12.1634 5.06396C12.2767 4.8298 12.4177 4.53819 12.6884 4.53819H12.6985C13.0201 4.52814 13.1005 4.84975 13.1005 5.03066V11.6337C13.1005 12.9804 12.005 14.0759 10.6583 14.0759H8.83917C8.51756 14.0759 8.29645 13.7442 8.42711 13.4528C8.52979 13.2185 8.63453 12.9812 8.74034 12.7414C8.9659 12.2303 9.19632 11.7082 9.42208 11.1814C9.44752 11.225 9.47295 11.2699 9.49886 11.3157C9.54462 11.3965 9.59186 11.4799 9.64319 11.5633C9.79394 11.8246 10.1357 11.9151 10.397 11.7643C10.6583 11.6136 10.7487 11.2819 10.598 11.0106L10.0653 10.0859H10.8593C11.1608 10.0859 11.402 9.83468 11.402 9.53317C11.402 9.23166 11.1608 8.9804 10.8593 8.9804H10.3869L10.5678 8.55829C10.6455 8.3839 10.7217 8.21248 10.7963 8.04473C11.1558 7.23609 11.4773 6.51296 11.7437 5.95528C11.8944 5.61357 12.0251 5.34221 12.1256 5.14121C12.1379 5.11655 12.1505 5.09063 12.1634 5.06396Z" fill="currentColor"/>
</svg>