<svg xmlns="http://www.w3.org/2000/svg" width="16" height="16" viewBox="0 0 16 16" fill="none">
<path d="M15 2.5C15 1.67157 14.3284 1 13.5 1H2.5C1.67157 1 1 1.67157 1 2.5L15 2.5Z" fill="currentColor"/>
<path d="M15 3.75H1V5.25H15V3.75Z" fill="currentColor"/>
<path fill-rule="evenodd" clip-rule="evenodd" d="M1 6.5V13.5C1 14.3284 1.67157 15 2.5 15H13.5C14.3284 15 15 14.3284 15 13.5L15 6.5H1ZM12.25 8H13.5V12.4393L11.4886 10.428C11.9686 9.73969 12.25 8.90271 12.25 8ZM10.75 8C10.75 8.48687 10.6235 8.94418 10.4015 9.34086L9.06066 8L10.75 8ZM5.25 8H6.93934L5.59848 9.34086C5.37652 8.94418 5.25 8.48687 5.25 8ZM3.75 8C3.75 8.90271 4.03144 9.73969 4.51136 10.428L2.5 12.4393L2.5 8H3.75ZM8 9.06066L9.34086 10.4015C8.94418 10.6235 8.48687 10.75 8 10.75C7.51313 10.75 7.05582 10.6235 6.65914 10.4015L8 9.06066ZM3.56066 13.5L5.57202 11.4886C6.26031 11.9686 7.09729 12.25 8 12.25C8.90271 12.25 9.73969 11.9686 10.428 11.4886L12.4393 13.5H3.56066Z" fill="currentColor"/>
</svg>