<svg xmlns="http://www.w3.org/2000/svg" width="16" height="16" viewBox="0 0 16 16" fill="none">
<path d="M9.9 6.09994C10.2866 6.48654 10.9134 6.48654 11.3 6.09994C11.6866 5.71334 11.6866 5.08654 11.3 4.69994C10.9134 4.31334 10.2866 4.31334 9.9 4.69994C9.5134 5.08654 9.5134 5.71334 9.9 6.09994Z" fill="currentColor"/>
<path fill-rule="evenodd" clip-rule="evenodd" d="M14.1457 1.81897C14.2973 1.96079 14.3833 2.15908 14.3833 2.36666C14.3833 3.0248 14.3224 4.06286 14.1376 5.06882C14.0452 5.57225 13.9185 6.08563 13.7444 6.54702C13.5741 6.99856 13.3379 7.45604 12.997 7.79701C12.4675 8.32645 11.4871 9.00896 10.577 9.61256C10.1374 9.90406 9.71238 10.1784 9.33248 10.4236C9.04664 10.6081 8.78633 10.7761 8.56461 10.9225C9.01396 11.6888 8.90992 12.6901 8.25248 13.3475L7.10002 14.5L6.16668 13.5667L6.86668 11L5.00001 9.13332L2.43334 9.83332L1.5 8.89998L2.65246 7.74752C3.30989 7.09009 4.31114 6.98604 5.07741 7.43536C5.22382 7.21365 5.39182 6.95338 5.5763 6.66756C5.82152 6.28765 6.09589 5.86258 6.3874 5.423C6.99099 4.51281 7.6735 3.53245 8.20295 3.003C8.55016 2.65579 9.02019 2.42473 9.47648 2.26187C9.94406 2.09497 10.4641 1.97665 10.9689 1.88998C11.9102 1.72834 12.8727 1.66507 13.4635 1.62624L13.5834 1.61832C13.7905 1.60451 13.9941 1.67716 14.1457 1.81897ZM8.55595 9.13939C8.16583 9.39146 7.8089 9.62208 7.5378 9.80444L6.19552 8.46215C6.37787 8.19107 6.60848 7.83416 6.86053 7.44405C7.10734 7.06208 7.37473 6.64824 7.63749 6.25201C8.2589 5.31497 8.85973 4.46755 9.26361 4.06366C9.38307 3.9442 9.61304 3.80581 9.98072 3.67458C10.3371 3.54738 10.765 3.44695 11.2227 3.36834C11.7844 3.27189 12.3589 3.21336 12.8559 3.17341C12.8247 3.66869 12.7644 4.24199 12.6623 4.79785C12.5798 5.2472 12.4731 5.66716 12.3409 6.01757C12.205 6.37784 12.062 6.61065 11.9363 6.73634C11.5324 7.14023 10.685 7.74106 9.74795 8.36247C9.35172 8.62523 8.93792 8.89259 8.55595 9.13939Z" fill="currentColor"/>
<path d="M4.70309 10.2363L2.60309 12.3363L3.66375 13.397L5.76375 11.297L4.70309 10.2363Z" fill="currentColor"/>
</svg>