<svg xmlns="http://www.w3.org/2000/svg" width="16" height="16" viewBox="0 0 16 16" fill="none">
<path d="M7.25 3.5V1.5H8.75V3.5H7.25Z" fill="currentColor"/>
<path d="M6.75 10C6.75 9.30964 7.30964 8.75 8 8.75V7.25C6.48122 7.25 5.25 8.48122 5.25 10H6.75Z" fill="currentColor"/>
<path fill-rule="evenodd" clip-rule="evenodd" d="M2.75 12.75V10C2.75 7.1005 5.1005 4.75 8 4.75C10.8995 4.75 13.25 7.1005 13.25 10V12.75H15V14.25H1V12.75H2.75ZM4.25 10C4.25 7.92893 5.92893 6.25 8 6.25C10.0711 6.25 11.75 7.92893 11.75 10V12.75H4.25V10Z" fill="currentColor"/>
<path d="M12.5303 5.53033L14.0303 4.03033L12.9697 2.96967L11.4697 4.46967L12.5303 5.53033Z" fill="currentColor"/>
<path d="M3.03033 2.96967L4.53033 4.46967L3.46967 5.53033L1.96967 4.03033L3.03033 2.96967Z" fill="currentColor"/>
</svg>