<svg xmlns="http://www.w3.org/2000/svg" width="16" height="16" viewBox="0 0 16 16" fill="none">
<path d="M11.7993 4.75C11.54 5.19835 11.0552 5.5 10.5 5.5C9.67157 5.5 9 4.82843 9 4C9 3.17157 9.67157 2.5 10.5 2.5C11.0552 2.5 11.54 2.80165 11.7993 3.25H13.5V4.75H11.7993Z" fill="currentColor"/>
<path d="M8 4.75H2.5V3.25H8V4.75Z" fill="currentColor"/>
<path d="M5 8.75H2.5V7.25H5V8.75Z" fill="currentColor"/>
<path d="M2.5 12.75H8V11.25H2.5V12.75Z" fill="currentColor"/>
<path d="M8.79933 7.25C8.53997 6.80165 8.05521 6.5 7.5 6.5C6.67157 6.5 6 7.17157 6 8C6 8.82843 6.67157 9.5 7.5 9.5C8.05521 9.5 8.53997 9.19835 8.79933 8.75H13.5V7.25H8.79933Z" fill="currentColor"/>
<path d="M13.5 12.75H11.7993C11.54 13.1984 11.0552 13.5 10.5 13.5C9.67157 13.5 9 12.8284 9 12C9 11.1716 9.67157 10.5 10.5 10.5C11.0552 10.5 11.54 10.8016 11.7993 11.25H13.5V12.75Z" fill="currentColor"/>
</svg>