<svg xmlns="http://www.w3.org/2000/svg" width="16" height="16" viewBox="0 0 16 16" fill="none">
<path d="M4.75 3.5V6.5H6.25V3.5H4.75Z" fill="currentColor"/>
<path d="M6.75 6.5V3.5H8.25V6.5H6.75Z" fill="currentColor"/>
<path d="M8.75 4V6.5H10.25V4H8.75Z" fill="currentColor"/>
<path fill-rule="evenodd" clip-rule="evenodd" d="M2.5 13.5V2.5C2.5 1.67157 3.17157 1 4 1H9.87868C10.2765 1 10.658 1.15804 10.9393 1.43934L13.0607 3.56066C13.342 3.84196 13.5 4.2235 13.5 4.62132V13.5C13.5 14.3284 12.8284 15 12 15H4C3.17157 15 2.5 14.3284 2.5 13.5ZM4 13.5V2.5L9.87868 2.5L12 4.62132V13.5H4Z" fill="currentColor"/>
</svg>