<svg width="16" height="16" viewBox="0 0 16 16" fill="none" xmlns="http://www.w3.org/2000/svg">
<path fill-rule="evenodd" clip-rule="evenodd" d="M5.32981 10.6234C4.97102 11.8274 4.9277 12.6987 5.2 12.856C5.4723 13.0132 6.20525 12.54 7.06852 11.6273C6.84947 11.35 6.63231 11.0552 6.41873 10.7451C6.04332 10.7152 5.67945 10.6745 5.32981 10.6234ZM3.94567 10.347C2.16318 9.88046 1 9.07492 1 8.00621C1 6.9375 2.16318 6.13196 3.94567 5.66544C3.45844 3.8885 3.57447 2.47838 4.5 1.94403C5.42553 1.40968 6.70474 2.01425 8 3.32467C9.29526 2.01425 10.5745 1.40968 11.5 1.94403C12.4255 2.47838 12.5416 3.8885 12.0543 5.66544C13.8368 6.13196 15 6.9375 15 8.00621C15 9.07492 13.8368 9.88046 12.0543 10.347C12.5416 12.1239 12.4255 13.534 11.5 14.0684C10.5745 14.6027 9.29526 13.9982 8 12.6877C6.70474 13.9982 5.42553 14.6027 4.5 14.0684C3.57447 13.534 3.45844 12.1239 3.94567 10.347ZM8.93148 4.38515C9.15053 4.66241 9.36769 4.9572 9.58127 5.26736C9.95667 5.29725 10.3205 5.33792 10.6702 5.389C11.029 4.18503 11.0723 3.31368 10.8 3.15647C10.5277 2.99925 9.79475 3.47244 8.93148 4.38515ZM6.41873 5.26736C6.63231 4.9572 6.84947 4.66241 7.06852 4.38515C6.20525 3.47244 5.4723 2.99925 5.2 3.15647C4.9277 3.31368 4.97102 4.18503 5.32981 5.389C5.67945 5.33792 6.04332 5.29725 6.41873 5.26736ZM9.58127 10.7451C9.36769 11.0552 9.15053 11.35 8.93148 11.6273C9.79475 12.54 10.5277 13.0132 10.8 12.856C11.0723 12.6987 11.029 11.8274 10.6702 10.6234C10.3205 10.6745 9.95667 10.7152 9.58127 10.7451ZM8.79764 9.38776C8.93833 9.16818 9.07703 8.94075 9.21244 8.70621C9.34785 8.47167 9.47546 8.23784 9.59528 8.00621C9.47546 7.77457 9.34785 7.54075 9.21244 7.30621C9.07703 7.07167 8.93833 6.84424 8.79764 6.62466C8.53713 6.6126 8.27082 6.60621 8 6.60621C7.72918 6.60621 7.46287 6.6126 7.20236 6.62466C7.06167 6.84424 6.92297 7.07167 6.78756 7.30621C6.65215 7.54075 6.52454 7.77457 6.40472 8.00621C6.52454 8.23784 6.65215 8.47167 6.78756 8.70621C6.92297 8.94075 7.06167 9.16818 7.20236 9.38776C7.46287 9.39981 7.72918 9.40621 8 9.40621C8.27082 9.40621 8.53713 9.39981 8.79764 9.38776ZM4.39833 9.01005C4.52892 8.68172 4.67564 8.34626 4.83746 8.00621C4.67564 7.66616 4.52892 7.3307 4.39833 7.00237C3.17627 7.29362 2.4 7.69178 2.4 8.00621C2.4 8.32063 3.17627 8.71879 4.39833 9.01005ZM11.6017 7.00237C11.4711 7.3307 11.3244 7.66616 11.1625 8.00621C11.3244 8.34626 11.4711 8.68172 11.6017 9.01005C12.8237 8.71879 13.6 8.32063 13.6 8.00621C13.6 7.69178 12.8237 7.29362 11.6017 7.00237ZM8 8.70621C7.6134 8.70621 7.3 8.39281 7.3 8.00621C7.3 7.61961 7.6134 7.30621 8 7.30621C8.3866 7.30621 8.7 7.61961 8.7 8.00621C8.7 8.39281 8.3866 8.70621 8 8.70621Z" fill="currentColor"/>
</svg>
