<svg xmlns="http://www.w3.org/2000/svg" width="16" height="16" viewBox="0 0 16 16" fill="none">
<path fill-rule="evenodd" clip-rule="evenodd" d="M11 13.5C11 14.3284 10.3284 15 9.5 15H2.5C1.67157 15 1 14.3284 1 13.5V6.5C1 5.67157 1.67157 5 2.5 5H9.5C10.3284 5 11 5.67157 11 6.5V13.5ZM9.5 13.5H2.5V6.5H9.5V13.5Z" fill="currentColor"/>
<path d="M13.5 11H12V9.5H13.5V2.5H6.5V4H5V2.5C5 1.67157 5.67157 1 6.5 1H13.5C14.3284 1 15 1.67157 15 2.5V9.5C15 10.3284 14.3284 11 13.5 11Z" fill="currentColor"/>
</svg>