<svg width="16" height="16" viewBox="0 0 16 16" fill="none" xmlns="http://www.w3.org/2000/svg">
<path d="M8.75 7.79933C9.19835 7.53997 9.5 7.05521 9.5 6.5C9.5 5.67157 8.82843 5 8 5C7.17157 5 6.5 5.67157 6.5 6.5C6.5 7.05521 6.80165 7.53997 7.25 7.79933V10H8.75V7.79933Z" fill="#2B0E3F"/>
<path fill-rule="evenodd" clip-rule="evenodd" d="M2.5 9.73616V3.5C2.5 2.67157 3.17157 2 4 2H12C12.8284 2 13.5 2.67157 13.5 3.5V9.73616C13.5 10.2161 13.2704 10.667 12.8823 10.9493L8.88226 13.8584C8.35628 14.2409 7.64372 14.2409 7.11774 13.8584L3.11774 10.9493C2.72963 10.667 2.5 10.2161 2.5 9.73616ZM4 3.5V9.73616L8 12.6453L12 9.73616V3.5L4 3.5Z" fill="#2B0E3F"/>
</svg>
