<svg xmlns="http://www.w3.org/2000/svg" width="16" height="16" viewBox="0 0 16 16" fill="none">
<path d="M3.46967 8.03033L4.93934 9.5L3.46967 10.9697L4.53033 12.0303L7.06066 9.5L4.53033 6.96967L3.46967 8.03033Z" fill="currentColor"/>
<path d="M8 10.5H11V12H8V10.5Z" fill="currentColor"/>
<path fill-rule="evenodd" clip-rule="evenodd" d="M13.5 2H2.5C1.67157 2 1 2.67157 1 3.5V13C1 13.8284 1.67157 14.5 2.5 14.5H13.5C14.3284 14.5 15 13.8284 15 13V3.5C15 2.67157 14.3284 2 13.5 2ZM2.5 3.5H13.5V4.75H2.5V3.5ZM2.5 6.25L2.5 13H13.5V6.25H2.5Z" fill="currentColor"/>
</svg>