<svg xmlns="http://www.w3.org/2000/svg" width="16" height="16" viewBox="0 0 16 16" fill="none">
<path fill-rule="evenodd" clip-rule="evenodd" d="M1.06068 6.93936L3.43936 4.56068C4.02514 3.97489 4.97489 3.97489 5.56068 4.56068L7.93936 6.93936C7.96033 6.96033 7.98055 6.98177 8.00002 7.00364C8.01949 6.98177 8.03971 6.96033 8.06068 6.93936L10.4394 4.56068C11.0251 3.97489 11.9749 3.97489 12.5607 4.56068L14.9394 6.93936C15.5251 7.52514 15.5251 8.47489 14.9394 9.06068L12.5607 11.4394C11.9749 12.0251 11.0251 12.0251 10.4394 11.4394L8.06068 9.06068C8.03971 9.03971 8.01949 9.01827 8.00002 8.9964C7.98055 9.01827 7.96033 9.03971 7.93936 9.06068L5.56068 11.4394C4.97489 12.0251 4.02515 12.0251 3.43936 11.4394L1.06068 9.06068C0.474892 8.47489 0.474891 7.52515 1.06068 6.93936ZM2.12134 8.00002L4.50002 5.62134L6.8787 8.00002L4.50002 10.3787L2.12134 8.00002ZM9.12134 8.00002L11.5 5.62134L13.8787 8.00002L11.5 10.3787L9.12134 8.00002Z" fill="currentColor"/>
</svg>