<svg xmlns="http://www.w3.org/2000/svg" width="16" height="16" viewBox="0 0 16 16" fill="none">
<path d="M14.2932 3.56906C13.9152 3.21285 13.405 3.00892 12.8705 3.00029C12.3359 2.99165 11.8187 3.17899 11.4279 3.52277C11.4083 3.54032 11.3927 3.56144 11.382 3.58484C11.3714 3.60824 11.3659 3.63344 11.3659 3.65891C11.3659 3.68437 11.3714 3.70957 11.382 3.73298C11.3927 3.75638 11.4083 3.7775 11.4279 3.79504L11.6764 4.03464C11.71 4.06611 11.7545 4.08509 11.8018 4.0881C11.849 4.0911 11.8958 4.07792 11.9336 4.05098C12.1719 3.87162 12.4746 3.78601 12.7784 3.81206C13.0822 3.83811 13.3635 3.9738 13.5636 4.19076C13.7636 4.40771 13.8669 4.68913 13.8518 4.97617C13.8367 5.2632 13.7044 5.53363 13.4826 5.73089C11.8455 7.27195 9.66071 2.951 4.70168 5.17818C4.61799 5.21606 4.54353 5.26987 4.48301 5.33622C4.4225 5.40257 4.37723 5.48002 4.35008 5.56367C4.32293 5.64733 4.31447 5.73538 4.32525 5.82227C4.33602 5.90916 4.3658 5.993 4.4127 6.06851L5.26376 7.45301C5.35188 7.59742 5.49698 7.70319 5.66747 7.74729C5.83796 7.7914 6.02004 7.77028 6.17408 7.68852L6.19431 7.67763L6.17841 7.68852L6.55121 7.49249C6.97155 7.2466 7.3689 6.96742 7.73895 6.65798C7.77557 6.62652 7.82291 6.60841 7.87245 6.60692C7.92198 6.60542 7.97046 6.62063 8.00915 6.64981C8.03007 6.66634 8.04704 6.68685 8.05895 6.71C8.07087 6.73314 8.07745 6.7584 8.07827 6.78411C8.07908 6.80982 8.07412 6.83541 8.0637 6.85919C8.05329 6.88296 8.03765 6.9044 8.01782 6.92208C7.62834 7.25261 7.20864 7.55009 6.76361 7.81104H6.75061L6.37348 8.0098C6.2142 8.09407 6.03452 8.13815 5.85185 8.13777C5.66266 8.13841 5.47663 8.09206 5.31251 8.00339C5.14838 7.91472 5.01196 7.78687 4.91698 7.63271L4.11215 6.32444C2.57329 7.35635 1.6283 9.33849 2.13981 11.8488C2.1482 11.8911 2.17198 11.9294 2.20705 11.9569C2.24213 11.9845 2.2863 11.9997 2.33198 11.9999H3.2394C3.2894 12.0012 3.338 11.9844 3.37532 11.953C3.41263 11.9216 3.43586 11.8781 3.44025 11.8311C3.48288 11.527 3.64137 11.2479 3.88619 11.0457C4.131 10.8435 4.44547 10.732 4.77104 10.732C5.09661 10.732 5.41108 10.8435 5.65589 11.0457C5.90071 11.2479 6.0592 11.527 6.10183 11.8311C6.10748 11.8758 6.13031 11.9169 6.16599 11.9468C6.20167 11.9766 6.24773 11.9931 6.29545 11.9931H7.18264C7.23027 11.9928 7.27617 11.9762 7.31178 11.9464C7.3474 11.9166 7.37031 11.8757 7.37627 11.8311C7.4189 11.527 7.57738 11.2479 7.8222 11.0457C8.06702 10.8435 8.38149 10.732 8.70705 10.732C9.03262 10.732 9.34709 10.8435 9.59191 11.0457C9.83673 11.2479 9.99521 11.527 10.0378 11.8311C10.0438 11.8757 10.0667 11.9166 10.1023 11.9464C10.1379 11.9762 10.1838 11.9928 10.2315 11.9931H11.1129C11.1645 11.9931 11.2141 11.974 11.2508 11.9399C11.2876 11.9057 11.3086 11.8593 11.3094 11.8107C11.3296 10.6399 11.6648 9.29492 12.6199 8.62105C15.9289 6.28905 15.059 4.29058 14.2932 3.56906ZM10.9193 7.09089L10.2878 6.79275C10.2878 6.72905 10.305 6.6664 10.3379 6.61077C10.3709 6.55514 10.4184 6.50837 10.4759 6.47494C10.5334 6.4415 10.5991 6.4225 10.6667 6.41975C10.7342 6.41701 10.8014 6.4306 10.8618 6.45925C10.9221 6.48789 10.9737 6.53062 11.0116 6.58338C11.0495 6.63613 11.0724 6.69715 11.0782 6.76061C11.084 6.82408 11.0724 6.88788 11.0446 6.94593C11.0167 7.00398 10.9736 7.05436 10.9193 7.09225V7.09089Z" fill="currentColor"/>
</svg>