<svg xmlns="http://www.w3.org/2000/svg" width="16" height="16" viewBox="0 0 16 16" fill="none">
<path fill-rule="evenodd" clip-rule="evenodd" d="M2 3C2 2.17157 2.67157 1.5 3.5 1.5H5.75C6.57843 1.5 7.25 2.17157 7.25 3V4.5C7.25 5.32843 6.57843 6 5.75 6H3.5C2.67157 6 2 5.32843 2 4.5V3ZM3.5 3H5.75V4.5H3.5L3.5 3Z" fill="currentColor"/>
<path fill-rule="evenodd" clip-rule="evenodd" d="M8.5 11.5C8.5 10.6716 9.17157 10 10 10H12.5C13.3284 10 14 10.6716 14 11.5V13C14 13.8284 13.3284 14.5 12.5 14.5H10C9.17157 14.5 8.5 13.8284 8.5 13V11.5ZM10 11.5H12.5V13H10V11.5Z" fill="currentColor"/>
<path fill-rule="evenodd" clip-rule="evenodd" d="M10 1.5C9.17157 1.5 8.5 2.17157 8.5 3V7.5C8.5 8.32843 9.17157 9 10 9H12.5C13.3284 9 14 8.32843 14 7.5V3C14 2.17157 13.3284 1.5 12.5 1.5H10ZM12.5 3H10V7.5H12.5V3Z" fill="currentColor"/>
<path fill-rule="evenodd" clip-rule="evenodd" d="M2 8.5C2 7.67157 2.67157 7 3.5 7H5.75C6.57843 7 7.25 7.67157 7.25 8.5V13C7.25 13.8284 6.57843 14.5 5.75 14.5H3.5C2.67157 14.5 2 13.8284 2 13V8.5ZM3.5 8.5H5.75V13H3.5L3.5 8.5Z" fill="currentColor"/>
</svg>