<svg xmlns="http://www.w3.org/2000/svg" width="16" height="16" viewBox="0 0 16 16" fill="none">
<path d="M12 6.5V8H4V6.5H12Z" fill="currentColor"/>
<path d="M9 9H4V10.5H9V9Z" fill="currentColor"/>
<path fill-rule="evenodd" clip-rule="evenodd" d="M6.37868 2.5C6.7765 2.5 7.15804 2.65804 7.43934 2.93934L8 3.5H13.5C14.3284 3.5 15 4.17157 15 5V12C15 12.8284 14.3284 13.5 13.5 13.5H2.5C1.67157 13.5 1 12.8284 1 12V4C1 3.17157 1.67157 2.5 2.5 2.5H6.37868ZM7.37868 5L6.37868 4H2.5V12H13.5V5L7.37868 5Z" fill="currentColor"/>
</svg>