<svg xmlns="http://www.w3.org/2000/svg" width="16" height="16" viewBox="0 0 16 16" fill="none">
<path d="M6.5 6.5H5V5H6.5V6.5Z" fill="currentColor"/>
<path d="M7.5 6.5H11V5H7.5V6.5Z" fill="currentColor"/>
<path d="M6.5 9H5V7.5H6.5V9Z" fill="currentColor"/>
<path d="M7.5 9H11V7.5H7.5V9Z" fill="currentColor"/>
<path d="M6.5 11.5H5V10H6.5V11.5Z" fill="currentColor"/>
<path d="M7.5 11.5H11V10H7.5V11.5Z" fill="currentColor"/>
<path fill-rule="evenodd" clip-rule="evenodd" d="M2.5 2.5C2.5 1.67157 3.17157 1 4 1H12C12.8284 1 13.5 1.67157 13.5 2.5V13.5C13.5 14.3284 12.8284 15 12 15H4C3.17157 15 2.5 14.3284 2.5 13.5V2.5ZM10 2.5H12V13.5H4L4 2.5H6V3.5H10V2.5Z" fill="currentColor"/>
</svg>