<svg xmlns="http://www.w3.org/2000/svg" width="16" height="16" viewBox="0 0 16 16" fill="none">
<path fill-rule="evenodd" clip-rule="evenodd" d="M13.0277 5.76697C14.1393 5.90381 15 6.85139 15 8C15 9.14864 14.1393 10.0963 13.0276 10.233C12.475 11.4754 11.4754 12.475 10.233 13.0276C10.0963 14.1393 9.14864 15 8 15C6.85139 15 5.90381 14.1393 5.76697 13.0277C4.5245 12.4751 3.52481 11.4755 2.97214 10.233C1.8606 10.0961 1 9.14856 1 8C1 6.85148 1.86054 5.90394 2.97203 5.767C3.52469 4.52444 4.52444 3.52469 5.767 2.97203C5.90394 1.86054 6.85148 1 8 1C9.14856 1 10.0961 1.8606 10.233 2.97214C11.4755 3.52481 12.4751 4.5245 13.0277 5.76697ZM8 4C8.41421 4 8.75 3.66421 8.75 3.25C8.75 2.83579 8.41421 2.5 8 2.5C7.58579 2.5 7.25 2.83579 7.25 3.25C7.25 3.66421 7.58579 4 8 4ZM9.88883 4.47311C9.48779 5.09116 8.79164 5.5 8 5.5C7.20832 5.5 6.51214 5.09113 6.11111 4.47302C5.41698 4.84554 4.84554 5.41698 4.47302 6.11111C5.09112 6.51214 5.5 7.20832 5.5 8C5.5 8.79164 5.09116 9.48779 4.47311 9.88883C4.84565 10.5829 5.41709 11.1543 6.11122 11.5268C6.51227 10.9088 7.20839 10.5 8 10.5C8.79157 10.5 9.48767 10.9088 9.88873 11.5267C10.5828 11.1542 11.1542 10.5828 11.5267 9.88873C10.9088 9.48767 10.5 8.79157 10.5 8C10.5 7.20839 10.9088 6.51227 11.5268 6.11122C11.1543 5.41709 10.5829 4.84565 9.88883 4.47311ZM3.25 8.75C3.66421 8.75 4 8.41421 4 8C4 7.58579 3.66421 7.25 3.25 7.25C2.83579 7.25 2.5 7.58579 2.5 8C2.5 8.41421 2.83579 8.75 3.25 8.75ZM12.75 8.75C13.1642 8.75 13.5 8.41421 13.5 8C13.5 7.58579 13.1642 7.25 12.75 7.25C12.3358 7.25 12 7.58579 12 8C12 8.41421 12.3358 8.75 12.75 8.75ZM8.75 12.75C8.75 13.1642 8.41421 13.5 8 13.5C7.58579 13.5 7.25 13.1642 7.25 12.75C7.25 12.3358 7.58579 12 8 12C8.41421 12 8.75 12.3358 8.75 12.75Z" fill="currentColor"/>
</svg>