<svg xmlns="http://www.w3.org/2000/svg" width="128" height="25" viewBox="0 0 128 25" fill="none">
<path d="M40.3735 20.0943C39.9241 20.0943 39.5366 20.0269 39.2108 19.8921C38.8962 19.746 38.6266 19.5887 38.4019 19.4202C38.1435 19.218 37.9301 18.9933 37.7616 18.7462H37.6773V19.9258H35.4024V8.13001H37.6773V12.8483H37.7616C37.9301 12.6012 38.1435 12.3765 38.4019 12.1743C38.6266 12.0058 38.8962 11.8541 39.2108 11.7193C39.5366 11.5732 39.9241 11.5002 40.3735 11.5002C40.8566 11.5002 41.3228 11.6069 41.7721 11.8204C42.2215 12.0338 42.6147 12.3315 42.9517 12.7135C43.3 13.0842 43.5752 13.5336 43.7774 14.0616C43.9796 14.5896 44.0807 15.1681 44.0807 15.7972C44.0807 16.4263 43.9796 17.0049 43.7774 17.5329C43.5752 18.0609 43.3 18.5159 42.9517 18.8978C42.6147 19.2798 42.2215 19.5775 41.7721 19.7909C41.3228 19.9932 40.8566 20.0943 40.3735 20.0943ZM39.6994 17.9879C39.9915 17.9879 40.2668 17.9317 40.5251 17.8194C40.7835 17.707 41.0082 17.5554 41.1992 17.3644C41.3902 17.1734 41.5362 16.9431 41.6373 16.6735C41.7497 16.4039 41.8058 16.1118 41.8058 15.7972C41.8058 15.4827 41.7497 15.1906 41.6373 14.921C41.5362 14.6514 41.3902 14.4211 41.1992 14.2301C41.0082 14.0391 40.7835 13.8875 40.5251 13.7751C40.2668 13.6628 39.9915 13.6066 39.6994 13.6066C39.4074 13.6066 39.1321 13.6628 38.8737 13.7751C38.6154 13.8875 38.3907 14.0391 38.1997 14.2301C38.0087 14.4211 37.8571 14.6514 37.7447 14.921C37.6436 15.1906 37.5931 15.4827 37.5931 15.7972C37.5931 16.1118 37.6436 16.4039 37.7447 16.6735C37.8571 16.9431 38.0087 17.1734 38.1997 17.3644C38.3907 17.5554 38.6154 17.707 38.8737 17.8194C39.1321 17.9317 39.4074 17.9879 39.6994 17.9879Z" fill="white"/>
<path d="M45.9026 11.6687H48.1775V19.9258H45.9026V11.6687ZM47.0316 10.5734C46.6721 10.5734 46.3632 10.4498 46.1048 10.2027C45.8577 9.94431 45.7341 9.6466 45.7341 9.30958C45.7341 8.97256 45.8633 8.68048 46.1217 8.43333C46.3801 8.17494 46.689 8.04575 47.0485 8.04575C47.408 8.04575 47.7113 8.17494 47.9584 8.43333C48.2168 8.68048 48.346 8.97256 48.346 9.30958C48.346 9.6466 48.2168 9.94431 47.9584 10.2027C47.7001 10.4498 47.3911 10.5734 47.0316 10.5734Z" fill="white"/>
<path d="M53.9515 20.0943C53.1089 20.0943 52.4349 19.8359 51.9294 19.3191C51.4238 18.7911 51.1711 18.0384 51.1711 17.0611V13.9436H49.7387V11.8372H50.497C51.1149 11.8372 51.4238 11.5002 51.4238 10.8262V9.30958H53.446V11.8372H55.2996V13.9436H53.446V16.7241C53.446 17.106 53.5415 17.3981 53.7324 17.6003C53.9346 17.8025 54.2043 17.9036 54.5413 17.9036C54.7884 17.9036 55.0075 17.8755 55.1985 17.8194C55.2996 17.7969 55.3895 17.7688 55.4681 17.7351V19.8415C55.3333 19.8864 55.1872 19.9314 55.03 19.9763C54.8952 20.01 54.7323 20.0381 54.5413 20.0606C54.3615 20.083 54.1649 20.0943 53.9515 20.0943Z" fill="white"/>
<path d="M57.3788 11.6687H59.6537V12.8483H59.738C59.9177 12.6012 60.1256 12.3765 60.3615 12.1743C60.5637 12.0058 60.8165 11.8541 61.1198 11.7193C61.4231 11.5732 61.777 11.5002 62.1814 11.5002H62.3499V13.9436C62.2937 13.9324 62.2319 13.9212 62.1645 13.9099C62.0971 13.8987 62.0129 13.8875 61.9118 13.8762C61.8219 13.865 61.7152 13.8594 61.5916 13.8594C61.0411 13.8594 60.5805 14.056 60.2098 14.4492C59.8391 14.8423 59.6537 15.376 59.6537 16.05V19.9258H57.3788V11.6687Z" fill="white"/>
<path d="M63.9151 11.6687H66.19V19.9258H63.9151V11.6687ZM65.0441 10.5734C64.6846 10.5734 64.3757 10.4498 64.1173 10.2027C63.8701 9.94431 63.7466 9.6466 63.7466 9.30958C63.7466 8.97256 63.8758 8.68048 64.1341 8.43333C64.3925 8.17494 64.7015 8.04575 65.061 8.04575C65.4204 8.04575 65.7238 8.17494 65.9709 8.43333C66.2293 8.68048 66.3585 8.97256 66.3585 9.30958C66.3585 9.6466 66.2293 9.94431 65.9709 10.2027C65.7125 10.4498 65.4036 10.5734 65.0441 10.5734Z" fill="white"/>
<path d="M71.2057 20.0943C70.6327 20.0943 70.1272 20.0156 69.6891 19.8583C69.2509 19.7011 68.8802 19.5269 68.5769 19.336C68.2174 19.1225 67.9141 18.8698 67.6669 18.5777L69.015 17.1453C69.1835 17.3251 69.3801 17.4823 69.6048 17.6172C69.7958 17.7407 70.0261 17.8475 70.2957 17.9373C70.5653 18.0272 70.8687 18.0721 71.2057 18.0721C71.5876 18.0721 71.8516 18.016 71.9977 17.9036C72.1437 17.7913 72.2167 17.6509 72.2167 17.4823C72.2167 17.3251 72.11 17.1959 71.8966 17.0948C71.6943 16.9824 71.436 16.8757 71.1214 16.7746C70.8069 16.6735 70.4698 16.5555 70.1103 16.4207C69.7509 16.2859 69.4138 16.1174 69.0993 15.9152C68.7847 15.713 68.5207 15.4602 68.3073 15.1569C68.1051 14.8536 68.004 14.4772 68.004 14.0279C68.004 13.6909 68.077 13.3707 68.223 13.0674C68.3691 12.764 68.5769 12.4944 68.8465 12.2585C69.1274 12.0226 69.47 11.8372 69.8744 11.7024C70.2901 11.5676 70.7619 11.5002 71.2899 11.5002C71.8179 11.5002 72.2785 11.5676 72.6717 11.7024C73.0761 11.8372 73.4132 11.9833 73.6828 12.1406C73.9973 12.3315 74.2669 12.5394 74.4916 12.7641L73.1435 14.1964C73.0087 14.0728 72.8458 13.9605 72.6549 13.8594C72.4976 13.7695 72.301 13.6909 72.0651 13.6235C71.8404 13.556 71.582 13.5223 71.2899 13.5223C70.9978 13.5223 70.7844 13.5785 70.6496 13.6909C70.5148 13.792 70.4474 13.9043 70.4474 14.0279C70.4474 14.1852 70.5485 14.32 70.7507 14.4323C70.9641 14.5334 71.2281 14.6345 71.5427 14.7356C71.8572 14.8367 72.1943 14.9547 72.5538 15.0895C72.9132 15.2243 73.2503 15.3928 73.5648 15.595C73.8794 15.7972 74.1378 16.05 74.34 16.3533C74.5534 16.6566 74.6601 17.033 74.6601 17.4823C74.6601 17.8418 74.5871 18.1789 74.4411 18.4934C74.295 18.808 74.076 19.0832 73.7839 19.3191C73.4918 19.555 73.1323 19.746 72.7054 19.8921C72.2785 20.0269 71.7786 20.0943 71.2057 20.0943Z" fill="white"/>
<path d="M80.1886 20.0943C79.582 20.0943 79.009 19.9819 78.4698 19.7572C77.9418 19.5326 77.4756 19.2236 77.0712 18.8304C76.678 18.4372 76.369 17.9823 76.1443 17.4655C75.9197 16.9487 75.8073 16.3926 75.8073 15.7972C75.8073 15.2131 75.9197 14.6626 76.1443 14.1458C76.369 13.6178 76.678 13.1572 77.0712 12.7641C77.4643 12.3709 77.9193 12.0619 78.4361 11.8372C78.9529 11.6126 79.5089 11.5002 80.1043 11.5002C80.6773 11.5002 81.2109 11.6126 81.7052 11.8372C82.2107 12.0507 82.6489 12.3428 83.0196 12.7135C83.3903 13.0842 83.6824 13.5223 83.8958 14.0279C84.1205 14.5222 84.2329 15.0558 84.2329 15.6287C84.2329 15.786 84.2272 15.9264 84.216 16.05C84.2048 16.1623 84.1935 16.2635 84.1823 16.3533C84.1711 16.4657 84.1598 16.5612 84.1486 16.6398H78.1665C78.29 17.0218 78.526 17.3588 78.8742 17.6509C79.2337 17.9317 79.728 18.0721 80.3571 18.0721C80.7166 18.0721 81.0312 18.0272 81.3008 17.9373C81.5704 17.8475 81.8007 17.7407 81.9917 17.6172C82.2051 17.4823 82.3905 17.3251 82.5478 17.1453L83.7273 18.7462C83.4802 18.9933 83.1769 19.218 82.8174 19.4202C82.514 19.5887 82.1433 19.746 81.7052 19.8921C81.2671 20.0269 80.7615 20.0943 80.1886 20.0943ZM81.8737 14.9547C81.7501 14.5727 81.5255 14.2413 81.1997 13.9605C80.8851 13.6684 80.4919 13.5223 80.0201 13.5223C79.5483 13.5223 79.1495 13.6684 78.8237 13.9605C78.5091 14.2413 78.29 14.5727 78.1665 14.9547H81.8737Z" fill="white"/>
<path d="M90.2365 8.13001H94.365C95.2524 8.13001 96.0669 8.28728 96.8084 8.60184C97.561 8.90516 98.2126 9.32082 98.7631 9.84881C99.3136 10.3768 99.7404 11.0003 100.044 11.7193C100.358 12.4383 100.516 13.2078 100.516 14.0279C100.516 14.848 100.358 15.6175 100.044 16.3365C99.7404 17.0555 99.3136 17.6789 98.7631 18.2069C98.2126 18.7349 97.561 19.1562 96.8084 19.4708C96.0669 19.7741 95.2524 19.9258 94.365 19.9258H90.2365V8.13001ZM94.365 17.9879C94.9379 17.9879 95.4659 17.8924 95.949 17.7014C96.432 17.4992 96.8477 17.224 97.1959 16.8757C97.5554 16.5162 97.8307 16.0949 98.0216 15.6119C98.2238 15.1288 98.325 14.6008 98.325 14.0279C98.325 13.4549 98.2238 12.9269 98.0216 12.4439C97.8307 11.9608 97.5554 11.5452 97.1959 11.1969C96.8477 10.8374 96.432 10.5622 95.949 10.3712C95.4659 10.169 94.9379 10.0679 94.365 10.0679H92.3428V17.9879H94.365Z" fill="white" fill-opacity="0.8"/>
<path d="M106.378 20.0943C105.782 20.0943 105.226 19.9819 104.71 19.7572C104.193 19.5326 103.738 19.2236 103.345 18.8304C102.951 18.4372 102.642 17.9823 102.418 17.4655C102.193 16.9487 102.081 16.3926 102.081 15.7972C102.081 15.2131 102.193 14.6626 102.418 14.1458C102.642 13.6178 102.951 13.1572 103.345 12.7641C103.738 12.3709 104.193 12.0619 104.71 11.8372C105.226 11.6126 105.782 11.5002 106.378 11.5002C106.962 11.5002 107.512 11.6126 108.029 11.8372C108.557 12.0619 109.018 12.3709 109.411 12.7641C109.804 13.1572 110.113 13.6178 110.338 14.1458C110.562 14.6626 110.675 15.2131 110.675 15.7972C110.675 16.3926 110.562 16.9487 110.338 17.4655C110.113 17.9823 109.804 18.4372 109.411 18.8304C109.018 19.2236 108.557 19.5326 108.029 19.7572C107.512 19.9819 106.962 20.0943 106.378 20.0943ZM106.378 18.2406C106.715 18.2406 107.024 18.1845 107.305 18.0721C107.597 17.9486 107.849 17.7801 108.063 17.5666C108.276 17.3419 108.439 17.0835 108.552 16.7915C108.675 16.4881 108.737 16.1567 108.737 15.7972C108.737 15.4378 108.675 15.112 108.552 14.8199C108.439 14.5166 108.276 14.2582 108.063 14.0447C107.849 13.8201 107.597 13.6515 107.305 13.5392C107.024 13.4156 106.715 13.3538 106.378 13.3538C106.041 13.3538 105.726 13.4156 105.434 13.5392C105.153 13.6515 104.906 13.8201 104.693 14.0447C104.479 14.2582 104.311 14.5166 104.187 14.8199C104.075 15.112 104.019 15.4378 104.019 15.7972C104.019 16.1567 104.075 16.4881 104.187 16.7915C104.311 17.0835 104.479 17.3419 104.693 17.5666C104.906 17.7801 105.153 17.9486 105.434 18.0721C105.726 18.1845 106.041 18.2406 106.378 18.2406Z" fill="white" fill-opacity="0.8"/>
<path d="M116.288 20.0943C115.692 20.0943 115.136 19.9819 114.619 19.7572C114.103 19.5326 113.648 19.2236 113.254 18.8304C112.861 18.4372 112.552 17.9823 112.328 17.4655C112.103 16.9487 111.991 16.3926 111.991 15.7972C111.991 15.2131 112.103 14.6626 112.328 14.1458C112.552 13.6178 112.861 13.1572 113.254 12.7641C113.648 12.3709 114.103 12.0619 114.619 11.8372C115.136 11.6126 115.692 11.5002 116.288 11.5002C116.883 11.5002 117.394 11.5901 117.821 11.7698C118.248 11.9383 118.607 12.1293 118.899 12.3428C119.236 12.5899 119.517 12.8708 119.742 13.1853L118.478 14.4492C118.298 14.2469 118.102 14.0672 117.888 13.9099C117.697 13.7751 117.467 13.6515 117.197 13.5392C116.928 13.4156 116.625 13.3538 116.288 13.3538C115.951 13.3538 115.636 13.4156 115.344 13.5392C115.063 13.6515 114.816 13.8201 114.602 14.0447C114.389 14.2582 114.22 14.5166 114.097 14.8199C113.985 15.112 113.928 15.4378 113.928 15.7972C113.928 16.1567 113.985 16.4881 114.097 16.7915C114.22 17.0835 114.389 17.3419 114.602 17.5666C114.816 17.7801 115.063 17.9486 115.344 18.0721C115.636 18.1845 115.951 18.2406 116.288 18.2406C116.625 18.2406 116.928 18.1845 117.197 18.0721C117.467 17.9598 117.697 17.8362 117.888 17.7014C118.102 17.5441 118.298 17.3588 118.478 17.1453L119.742 18.4092C119.517 18.7237 119.236 19.0046 118.899 19.2517C118.607 19.4652 118.248 19.6618 117.821 19.8415C117.394 20.01 116.883 20.0943 116.288 20.0943Z" fill="white" fill-opacity="0.8"/>
<path d="M123.997 20.0943C123.447 20.0943 122.964 20.0156 122.548 19.8583C122.144 19.7011 121.796 19.5269 121.503 19.336C121.166 19.1225 120.874 18.8698 120.627 18.5777L121.891 17.3138C122.06 17.5048 122.251 17.6733 122.464 17.8194C122.655 17.9429 122.874 18.0609 123.121 18.1732C123.38 18.2743 123.672 18.3249 123.997 18.3249C124.424 18.3249 124.739 18.2406 124.941 18.0721C125.155 17.9036 125.261 17.707 125.261 17.4823C125.261 17.3026 125.155 17.1566 124.941 17.0442C124.728 16.9319 124.464 16.8252 124.149 16.7241C123.835 16.6229 123.486 16.5106 123.104 16.387C122.734 16.2635 122.391 16.1062 122.076 15.9152C121.762 15.7242 121.498 15.4771 121.284 15.1738C121.071 14.8704 120.964 14.4885 120.964 14.0279C120.964 13.6909 121.032 13.3707 121.166 13.0674C121.312 12.764 121.52 12.4944 121.79 12.2585C122.06 12.0226 122.385 11.8372 122.767 11.7024C123.16 11.5676 123.599 11.5002 124.082 11.5002C124.587 11.5002 125.025 11.5676 125.396 11.7024C125.778 11.8372 126.098 11.9833 126.357 12.1406C126.649 12.3315 126.901 12.5394 127.115 12.7641L125.851 14.0279C125.716 13.9043 125.559 13.792 125.379 13.6909C125.222 13.601 125.031 13.5223 124.806 13.4549C124.593 13.3875 124.351 13.3538 124.082 13.3538C123.7 13.3538 123.419 13.4269 123.239 13.5729C123.071 13.7077 122.986 13.8594 122.986 14.0279C122.986 14.2076 123.093 14.3537 123.307 14.466C123.52 14.5783 123.784 14.6851 124.099 14.7862C124.413 14.8873 124.756 14.9996 125.126 15.1232C125.508 15.2468 125.857 15.404 126.171 15.595C126.486 15.786 126.75 16.0332 126.963 16.3365C127.177 16.6398 127.283 17.0218 127.283 17.4823C127.283 17.8306 127.21 18.162 127.064 18.4766C126.918 18.7911 126.705 19.072 126.424 19.3191C126.143 19.555 125.795 19.746 125.379 19.8921C124.975 20.0269 124.514 20.0943 123.997 20.0943Z" fill="white" fill-opacity="0.8"/>
<path d="M16.055 1.74337C16.055 2.42998 15.4915 2.9866 14.7962 2.9866C14.101 2.9866 13.5374 2.42998 13.5374 1.74337C13.5374 1.05676 14.101 0.5 14.7962 0.5C15.4915 0.5 16.055 1.05676 16.055 1.74337Z" fill="white"/>
<path d="M5.40952 14.5537C5.40952 13.4456 6.31909 12.5471 7.44126 12.5471C8.56343 12.5471 9.47301 13.4456 9.47301 14.5537H5.40952Z" fill="white"/>
<path d="M11.5057 16.5605C11.5057 18.3552 12.9789 19.8103 14.7963 19.8103C16.6135 19.8103 18.0868 18.3552 18.0868 16.5605H11.5057Z" fill="white"/>
<path d="M22.1651 12.5475C21.0429 12.5475 20.1333 13.446 20.1333 14.5541H24.1968C24.1968 13.446 23.2873 12.5475 22.1651 12.5475Z" fill="white"/>
<path fill-rule="evenodd" clip-rule="evenodd" d="M29.0271 14.2727C28.6855 11.9818 28.1742 9.66488 27.8054 8.12488C27.3658 6.2897 25.7901 4.97799 23.8847 4.86079C22.014 4.74563 18.9187 4.60822 14.7962 4.60822C10.6735 4.60822 7.57818 4.74563 5.70779 4.86079C3.80207 4.97799 2.22644 6.2897 1.78696 8.12488C1.41816 9.66415 0.906981 11.9802 0.565118 14.2727C0.33397 15.8226 0.147138 17.6531 0.00962665 19.7132C-0.0672264 20.8612 0.318069 21.9661 1.09411 22.8243C1.87132 23.6837 2.94138 24.1865 4.10742 24.2404C6.66875 24.3588 10.6022 24.5 14.7962 24.5C18.9898 24.5 22.9235 24.3588 25.4849 24.2404C26.651 24.1865 27.721 23.6837 28.4981 22.8243C29.2741 21.9663 29.6594 20.8613 29.5826 19.7132C29.4452 17.6531 29.2582 15.8226 29.0271 14.2727ZM26.9827 21.4878C26.572 21.9417 26.0064 22.2074 25.3899 22.236C22.85 22.3534 18.9503 22.4932 14.796 22.4932C10.6415 22.4932 6.7419 22.3534 4.20222 22.236C3.58563 22.2074 3.01998 21.9417 2.60921 21.4876C2.19962 21.0347 1.9963 20.4513 2.03679 19.8452C2.17077 17.8385 2.35186 16.0621 2.57505 14.5649C2.90632 12.3433 3.40454 10.0879 3.76407 8.58669C3.99595 7.61785 4.82794 6.92542 5.83395 6.86362C7.67562 6.75021 10.7256 6.61498 14.796 6.61498C18.8661 6.61498 21.9162 6.75021 23.7582 6.86362C24.7642 6.92542 25.5959 7.61785 25.8279 8.58669C26.1878 10.0885 26.6858 12.3447 27.0168 14.5649C27.24 16.0621 27.4213 17.8385 27.5552 19.8452C27.5956 20.4514 27.3922 21.0348 26.9827 21.4878Z" fill="white"/>
</svg>