<svg xmlns="http://www.w3.org/2000/svg" width="24" height="24" viewBox="0 0 24 24" fill="none">
  <path fill-rule="evenodd" clip-rule="evenodd" d="M3.5 7.5V5C3.5 3.89543 4.39543 3 5.5 3H9C10.1046 3 11 3.89543 11 5V7.5C11 8.60457 10.1046 9.5 9 9.5H5.5C4.39543 9.5 3.5 8.60457 3.5 7.5ZM5.5 7.5V5L9 5V7.5H5.5Z" fill="currentColor"/>
  <path fill-rule="evenodd" clip-rule="evenodd" d="M12.5 19V16.5C12.5 15.3954 13.3954 14.5 14.5 14.5H18.5C19.6046 14.5 20.5 15.3954 20.5 16.5V19C20.5 20.1046 19.6046 21 18.5 21H14.5C13.3954 21 12.5 20.1046 12.5 19ZM14.5 19V16.5H18.5V19H14.5Z" fill="currentColor"/>
  <path fill-rule="evenodd" clip-rule="evenodd" d="M3.5 13V19C3.5 20.1046 4.39543 21 5.5 21H9C10.1046 21 11 20.1046 11 19V13C11 11.8954 10.1046 11 9 11H5.5C4.39543 11 3.5 11.8954 3.5 13ZM5.5 13V19H9V13H5.5Z" fill="currentColor"/>
  <path fill-rule="evenodd" clip-rule="evenodd" d="M12.5 11V5C12.5 3.89543 13.3954 3 14.5 3H18.5C19.6046 3 20.5 3.89543 20.5 5V11C20.5 12.1046 19.6046 13 18.5 13H14.5C13.3954 13 12.5 12.1046 12.5 11ZM14.5 11V5L18.5 5V11H14.5Z" fill="currentColor"/>
</svg>