<svg xmlns="http://www.w3.org/2000/svg" width="24" height="24" viewBox="0 0 24 24" fill="none">
  <path fill-rule="evenodd" clip-rule="evenodd" d="M19.0903 3.94258C19.6187 4.48914 20 5.18589 20 6V9.28838C19.8225 9.10323 19.6026 8.95531 19.3505 8.86095C18.9001 8.69233 18.4148 8.72019 18 8.91263V8.90711L17.9525 8.93556C17.8932 8.96525 17.8355 8.99837 17.7797 9.03481C17.5498 9.16278 17.3081 9.28145 17.0577 9.39103C15.4562 10.0917 13.3137 10.5 11 10.5C8.6863 10.5 6.54381 10.0917 4.94233 9.39103C4.61046 9.24584 4.29406 9.0847 4 8.90711V12C4 12.1524 4.06638 12.3764 4.34763 12.6673C4.63353 12.963 5.09551 13.275 5.74396 13.5587C7.03791 14.1248 8.89543 14.5 11 14.5C12.0309 14.5 13.0026 14.41 13.8778 14.2516L12.3647 16.352C12.3401 16.3863 12.3168 16.4212 12.2948 16.4568C11.8711 16.4853 11.4386 16.5 11 16.5C8.6863 16.5 6.54381 16.0917 4.94233 15.391C4.61046 15.2458 4.29406 15.0847 4 14.9071V18C4 18.1524 4.06638 18.3764 4.34763 18.6673C4.63353 18.963 5.09551 19.275 5.74396 19.5587C7.03791 20.1248 8.89543 20.5 11 20.5C12.5941 20.5 14.0464 20.2848 15.2194 19.9343L15.0897 21.339C15.0679 21.5747 15.0943 21.8062 15.1619 22.0221C13.9118 22.3303 12.4915 22.5 11 22.5C8.6863 22.5 6.54381 22.0917 4.94233 21.391C4.14307 21.0414 3.43348 20.5992 2.90973 20.0574C2.38133 19.5109 2 18.8141 2 18V6C2 5.18589 2.38133 4.48914 2.90973 3.94258C3.43348 3.40083 4.14307 2.95864 4.94233 2.60897C6.54381 1.90832 8.6863 1.5 11 1.5C13.3137 1.5 15.4562 1.90832 17.0577 2.60897C17.8569 2.95864 18.5665 3.40083 19.0903 3.94258ZM4 6C4 5.84762 4.06638 5.62362 4.34763 5.3327C4.63353 5.03698 5.09551 4.72498 5.74396 4.44128C7.03791 3.87518 8.89543 3.5 11 3.5C13.1046 3.5 14.9621 3.87518 16.256 4.44128C16.9045 4.72498 17.3665 5.03698 17.6524 5.3327C17.9336 5.62362 18 5.84762 18 6C18 6.15238 17.9336 6.37638 17.6524 6.6673C17.3665 6.96302 16.9045 7.27502 16.256 7.55872C14.9621 8.12482 13.1046 8.5 11 8.5C8.89543 8.5 7.03791 8.12482 5.74396 7.55872C5.09551 7.27502 4.63353 6.96302 4.34763 6.6673C4.06638 6.37638 4 6.15238 4 6Z" fill="currentColor"/>
  <path d="M8 12C8 12.5523 7.55228 13 7 13C6.44772 13 6 12.5523 6 12C6 11.4477 6.44772 11 7 11C7.55228 11 8 11.4477 8 12Z" fill="currentColor"/>
  <path d="M8 18C8 18.5523 7.55228 19 7 19C6.44772 19 6 18.5523 6 18C6 17.4477 6.44772 17 7 17C7.55228 17 8 17.4477 8 18Z" fill="currentColor"/>
  <path d="M19 9.79765C19.3168 9.91624 19.515 10.2322 19.4839 10.569L19.1786 13.8751H21.7847C22.0662 13.8751 22.3239 14.0327 22.4522 14.2832C22.5805 14.5337 22.5577 14.835 22.3932 15.0634L17.4408 21.9384C17.2431 22.2129 16.8862 22.321 16.5694 22.2025C16.2526 22.0839 16.0544 21.7679 16.0855 21.4311L16.3908 18.1251H13.7847C13.5032 18.1251 13.2454 17.9674 13.1171 17.7169C12.9888 17.4664 13.0116 17.1651 13.1761 16.9367L18.1285 10.0617C18.3262 9.78723 18.6832 9.67907 19 9.79765Z" fill="currentColor"/>
</svg>