<svg viewBox="0 0 127.283 32" fill="none" xmlns="http://www.w3.org/2000/svg">
<g id="logo-margin">
<g id="logo-docs">
<path d="M40.3735 22.0943C39.9241 22.0943 39.5366 22.0269 39.2108 21.8921C38.8962 21.746 38.6266 21.5887 38.4019 21.4202C38.1435 21.218 37.9301 20.9933 37.7616 20.7462H37.6773V21.9258H35.4024V10.13H37.6773V14.8483H37.7616C37.9301 14.6012 38.1435 14.3765 38.4019 14.1743C38.6266 14.0058 38.8962 13.8541 39.2108 13.7193C39.5366 13.5732 39.9241 13.5002 40.3735 13.5002C40.8566 13.5002 41.3228 13.6069 41.7721 13.8204C42.2215 14.0338 42.6147 14.3315 42.9517 14.7135C43.3 15.0842 43.5752 15.5336 43.7774 16.0616C43.9796 16.5896 44.0807 17.1681 44.0807 17.7972C44.0807 18.4263 43.9796 19.0049 43.7774 19.5329C43.5752 20.0609 43.3 20.5159 42.9517 20.8978C42.6147 21.2798 42.2215 21.5775 41.7721 21.7909C41.3228 21.9932 40.8566 22.0943 40.3735 22.0943ZM39.6994 19.9879C39.9915 19.9879 40.2668 19.9317 40.5251 19.8194C40.7835 19.707 41.0082 19.5554 41.1992 19.3644C41.3902 19.1734 41.5362 18.9431 41.6373 18.6735C41.7497 18.4039 41.8058 18.1118 41.8058 17.7972C41.8058 17.4827 41.7497 17.1906 41.6373 16.921C41.5362 16.6514 41.3902 16.4211 41.1992 16.2301C41.0082 16.0391 40.7835 15.8875 40.5251 15.7751C40.2668 15.6628 39.9915 15.6066 39.6994 15.6066C39.4074 15.6066 39.1321 15.6628 38.8737 15.7751C38.6154 15.8875 38.3907 16.0391 38.1997 16.2301C38.0087 16.4211 37.8571 16.6514 37.7447 16.921C37.6436 17.1906 37.5931 17.4827 37.5931 17.7972C37.5931 18.1118 37.6436 18.4039 37.7447 18.6735C37.8571 18.9431 38.0087 19.1734 38.1997 19.3644C38.3907 19.5554 38.6154 19.707 38.8737 19.8194C39.1321 19.9317 39.4074 19.9879 39.6994 19.9879Z" fill="var(--fill-0, white)"/>
<path d="M45.9026 13.6687H48.1775V21.9258H45.9026V13.6687ZM47.0316 12.5734C46.6721 12.5734 46.3632 12.4498 46.1048 12.2027C45.8577 11.9443 45.7341 11.6466 45.7341 11.3096C45.7341 10.9726 45.8633 10.6805 46.1217 10.4333C46.3801 10.1749 46.689 10.0458 47.0485 10.0458C47.408 10.0458 47.7113 10.1749 47.9584 10.4333C48.2168 10.6805 48.346 10.9726 48.346 11.3096C48.346 11.6466 48.2168 11.9443 47.9584 12.2027C47.7001 12.4498 47.3911 12.5734 47.0316 12.5734Z" fill="var(--fill-0, white)"/>
<path d="M53.9515 22.0943C53.1089 22.0943 52.4349 21.8359 51.9294 21.3191C51.4238 20.7911 51.1711 20.0384 51.1711 19.0611V15.9436H49.7387V13.8372H50.497C51.1149 13.8372 51.4238 13.5002 51.4238 12.8262V11.3096H53.446V13.8372H55.2996V15.9436H53.446V18.7241C53.446 19.106 53.5415 19.3981 53.7324 19.6003C53.9346 19.8025 54.2043 19.9036 54.5413 19.9036C54.7884 19.9036 55.0075 19.8755 55.1985 19.8194C55.2996 19.7969 55.3895 19.7688 55.4681 19.7351V21.8415C55.3333 21.8864 55.1872 21.9314 55.03 21.9763C54.8952 22.01 54.7323 22.0381 54.5413 22.0606C54.3615 22.083 54.1649 22.0943 53.9515 22.0943Z" fill="var(--fill-0, white)"/>
<path d="M57.3788 13.6687H59.6537V14.8483H59.738C59.9177 14.6012 60.1256 14.3765 60.3615 14.1743C60.5637 14.0058 60.8165 13.8541 61.1198 13.7193C61.4231 13.5732 61.777 13.5002 62.1814 13.5002H62.3499V15.9436C62.2937 15.9324 62.2319 15.9212 62.1645 15.9099C62.0971 15.8987 62.0129 15.8875 61.9118 15.8762C61.8219 15.865 61.7152 15.8594 61.5916 15.8594C61.0411 15.8594 60.5805 16.056 60.2098 16.4492C59.8391 16.8423 59.6537 17.376 59.6537 18.05V21.9258H57.3788V13.6687Z" fill="var(--fill-0, white)"/>
<path d="M63.9151 13.6687H66.19V21.9258H63.9151V13.6687ZM65.0441 12.5734C64.6846 12.5734 64.3757 12.4498 64.1173 12.2027C63.8701 11.9443 63.7466 11.6466 63.7466 11.3096C63.7466 10.9726 63.8758 10.6805 64.1341 10.4333C64.3925 10.1749 64.7015 10.0458 65.061 10.0458C65.4204 10.0458 65.7238 10.1749 65.9709 10.4333C66.2293 10.6805 66.3585 10.9726 66.3585 11.3096C66.3585 11.6466 66.2293 11.9443 65.9709 12.2027C65.7125 12.4498 65.4036 12.5734 65.0441 12.5734Z" fill="var(--fill-0, white)"/>
<path d="M71.2057 22.0943C70.6327 22.0943 70.1272 22.0156 69.6891 21.8583C69.2509 21.7011 68.8802 21.5269 68.5769 21.336C68.2174 21.1225 67.9141 20.8698 67.6669 20.5777L69.015 19.1453C69.1835 19.3251 69.3801 19.4823 69.6048 19.6172C69.7958 19.7407 70.0261 19.8475 70.2957 19.9373C70.5653 20.0272 70.8686 20.0721 71.2057 20.0721C71.5876 20.0721 71.8516 20.016 71.9977 19.9036C72.1437 19.7913 72.2167 19.6509 72.2167 19.4823C72.2167 19.3251 72.11 19.1959 71.8966 19.0948C71.6943 18.9824 71.436 18.8757 71.1214 18.7746C70.8069 18.6735 70.4698 18.5555 70.1103 18.4207C69.7509 18.2859 69.4138 18.1174 69.0993 17.9152C68.7847 17.713 68.5207 17.4602 68.3073 17.1569C68.1051 16.8536 68.004 16.4772 68.004 16.0279C68.004 15.6909 68.077 15.3707 68.223 15.0674C68.3691 14.764 68.5769 14.4944 68.8465 14.2585C69.1274 14.0226 69.47 13.8372 69.8744 13.7024C70.2901 13.5676 70.7619 13.5002 71.2899 13.5002C71.8179 13.5002 72.2785 13.5676 72.6717 13.7024C73.0761 13.8372 73.4132 13.9833 73.6828 14.1406C73.9973 14.3315 74.2669 14.5394 74.4916 14.7641L73.1435 16.1964C73.0087 16.0728 72.8458 15.9605 72.6549 15.8594C72.4976 15.7695 72.301 15.6909 72.0651 15.6235C71.8404 15.556 71.582 15.5223 71.2899 15.5223C70.9978 15.5223 70.7844 15.5785 70.6496 15.6909C70.5148 15.792 70.4474 15.9043 70.4474 16.0279C70.4474 16.1852 70.5485 16.32 70.7507 16.4323C70.9641 16.5334 71.2281 16.6345 71.5427 16.7356C71.8572 16.8367 72.1943 16.9547 72.5538 17.0895C72.9132 17.2243 73.2503 17.3928 73.5648 17.595C73.8794 17.7972 74.1378 18.05 74.34 18.3533C74.5534 18.6566 74.6601 19.033 74.6601 19.4823C74.6601 19.8418 74.5871 20.1789 74.4411 20.4934C74.295 20.808 74.076 21.0832 73.7839 21.3191C73.4918 21.555 73.1323 21.746 72.7054 21.8921C72.2785 22.0269 71.7786 22.0943 71.2057 22.0943Z" fill="var(--fill-0, white)"/>
<path d="M80.1886 22.0943C79.582 22.0943 79.009 21.9819 78.4698 21.7572C77.9418 21.5326 77.4756 21.2236 77.0712 20.8304C76.678 20.4372 76.369 19.9823 76.1443 19.4655C75.9197 18.9487 75.8073 18.3926 75.8073 17.7972C75.8073 17.2131 75.9197 16.6626 76.1443 16.1458C76.369 15.6178 76.678 15.1572 77.0712 14.7641C77.4643 14.3709 77.9193 14.0619 78.4361 13.8372C78.9529 13.6126 79.5089 13.5002 80.1043 13.5002C80.6773 13.5002 81.2109 13.6126 81.7052 13.8372C82.2107 14.0507 82.6489 14.3428 83.0196 14.7135C83.3903 15.0842 83.6824 15.5223 83.8958 16.0279C84.1205 16.5222 84.2329 17.0558 84.2329 17.6287C84.2329 17.786 84.2272 17.9264 84.216 18.05C84.2048 18.1623 84.1935 18.2635 84.1823 18.3533C84.1711 18.4657 84.1598 18.5612 84.1486 18.6398H78.1665C78.29 19.0218 78.526 19.3588 78.8742 19.6509C79.2337 19.9317 79.728 20.0721 80.3571 20.0721C80.7166 20.0721 81.0312 20.0272 81.3008 19.9373C81.5704 19.8475 81.8007 19.7407 81.9917 19.6172C82.2051 19.4823 82.3905 19.3251 82.5478 19.1453L83.7273 20.7462C83.4802 20.9933 83.1769 21.218 82.8174 21.4202C82.514 21.5887 82.1433 21.746 81.7052 21.8921C81.2671 22.0269 80.7615 22.0943 80.1886 22.0943ZM81.8737 16.9547C81.7501 16.5727 81.5255 16.2413 81.1997 15.9605C80.8851 15.6684 80.4919 15.5223 80.0201 15.5223C79.5483 15.5223 79.1495 15.6684 78.8237 15.9605C78.5091 16.2413 78.29 16.5727 78.1665 16.9547H81.8737Z" fill="var(--fill-0, white)"/>
<path d="M90.2364 10.13H94.365C95.2525 10.13 96.0669 10.2873 96.8084 10.6018C97.561 10.9052 98.2126 11.3208 98.7631 11.8488C99.3136 12.3768 99.7404 13.0003 100.044 13.7193C100.358 14.4383 100.516 15.2078 100.516 16.0279C100.516 16.848 100.358 17.6175 100.044 18.3365C99.7404 19.0555 99.3136 19.6789 98.7631 20.2069C98.2126 20.7349 97.561 21.1562 96.8084 21.4708C96.0669 21.7741 95.2525 21.9258 94.365 21.9258H90.2364V10.13ZM94.365 19.9879C94.9379 19.9879 95.4659 19.8924 95.949 19.7014C96.432 19.4992 96.8477 19.224 97.1959 18.8757C97.5554 18.5162 97.8307 18.0949 98.0216 17.6119C98.2239 17.1288 98.325 16.6008 98.325 16.0279C98.325 15.4549 98.2239 14.9269 98.0216 14.4439C97.8307 13.9608 97.5554 13.5452 97.1959 13.1969C96.8477 12.8374 96.432 12.5622 95.949 12.3712C95.4659 12.169 94.9379 12.0679 94.365 12.0679H92.3428V19.9879H94.365Z" fill="white" fill-opacity="0.8"/>
<path d="M106.378 22.0943C105.782 22.0943 105.226 21.9819 104.71 21.7572C104.193 21.5326 103.738 21.2236 103.345 20.8304C102.951 20.4372 102.642 19.9823 102.418 19.4655C102.193 18.9487 102.081 18.3926 102.081 17.7972C102.081 17.2131 102.193 16.6626 102.418 16.1458C102.642 15.6178 102.951 15.1572 103.345 14.7641C103.738 14.3709 104.193 14.0619 104.71 13.8372C105.226 13.6126 105.782 13.5002 106.378 13.5002C106.962 13.5002 107.512 13.6126 108.029 13.8372C108.557 14.0619 109.018 14.3709 109.411 14.7641C109.804 15.1572 110.113 15.6178 110.338 16.1458C110.562 16.6626 110.675 17.2131 110.675 17.7972C110.675 18.3926 110.562 18.9487 110.338 19.4655C110.113 19.9823 109.804 20.4372 109.411 20.8304C109.018 21.2236 108.557 21.5326 108.029 21.7572C107.512 21.9819 106.962 22.0943 106.378 22.0943ZM106.378 20.2406C106.715 20.2406 107.024 20.1845 107.305 20.0721C107.597 19.9486 107.849 19.7801 108.063 19.5666C108.276 19.3419 108.439 19.0835 108.552 18.7915C108.675 18.4881 108.737 18.1567 108.737 17.7972C108.737 17.4378 108.675 17.112 108.552 16.8199C108.439 16.5166 108.276 16.2582 108.063 16.0447C107.849 15.82 107.597 15.6515 107.305 15.5392C107.024 15.4156 106.715 15.3538 106.378 15.3538C106.041 15.3538 105.726 15.4156 105.434 15.5392C105.153 15.6515 104.906 15.82 104.693 16.0447C104.479 16.2582 104.311 16.5166 104.187 16.8199C104.075 17.112 104.019 17.4378 104.019 17.7972C104.019 18.1567 104.075 18.4881 104.187 18.7915C104.311 19.0835 104.479 19.3419 104.693 19.5666C104.906 19.7801 105.153 19.9486 105.434 20.0721C105.726 20.1845 106.041 20.2406 106.378 20.2406Z" fill="white" fill-opacity="0.8"/>
<path d="M116.288 22.0943C115.692 22.0943 115.136 21.9819 114.619 21.7572C114.103 21.5326 113.648 21.2236 113.254 20.8304C112.861 20.4372 112.552 19.9823 112.328 19.4655C112.103 18.9487 111.991 18.3926 111.991 17.7972C111.991 17.2131 112.103 16.6626 112.328 16.1458C112.552 15.6178 112.861 15.1572 113.254 14.7641C113.648 14.3709 114.103 14.0619 114.619 13.8372C115.136 13.6126 115.692 13.5002 116.288 13.5002C116.883 13.5002 117.394 13.5901 117.821 13.7698C118.248 13.9383 118.607 14.1293 118.899 14.3428C119.236 14.5899 119.517 14.8708 119.742 15.1853L118.478 16.4492C118.298 16.2469 118.102 16.0672 117.888 15.9099C117.697 15.7751 117.467 15.6515 117.197 15.5392C116.928 15.4156 116.625 15.3538 116.288 15.3538C115.951 15.3538 115.636 15.4156 115.344 15.5392C115.063 15.6515 114.816 15.82 114.602 16.0447C114.389 16.2582 114.22 16.5166 114.097 16.8199C113.985 17.112 113.928 17.4378 113.928 17.7972C113.928 18.1567 113.985 18.4881 114.097 18.7915C114.22 19.0835 114.389 19.3419 114.602 19.5666C114.816 19.7801 115.063 19.9486 115.344 20.0721C115.636 20.1845 115.951 20.2406 116.288 20.2406C116.625 20.2406 116.928 20.1845 117.197 20.0721C117.467 19.9598 117.697 19.8362 117.888 19.7014C118.102 19.5441 118.298 19.3588 118.478 19.1453L119.742 20.4092C119.517 20.7237 119.236 21.0046 118.899 21.2517C118.607 21.4652 118.248 21.6618 117.821 21.8415C117.394 22.01 116.883 22.0943 116.288 22.0943Z" fill="white" fill-opacity="0.8"/>
<path d="M123.997 22.0943C123.447 22.0943 122.964 22.0156 122.548 21.8583C122.144 21.7011 121.796 21.5269 121.503 21.336C121.166 21.1225 120.874 20.8698 120.627 20.5777L121.891 19.3138C122.06 19.5048 122.251 19.6733 122.464 19.8194C122.655 19.9429 122.874 20.0609 123.121 20.1732C123.38 20.2743 123.672 20.3249 123.997 20.3249C124.424 20.3249 124.739 20.2406 124.941 20.0721C125.155 19.9036 125.261 19.707 125.261 19.4823C125.261 19.3026 125.155 19.1566 124.941 19.0442C124.728 18.9319 124.464 18.8252 124.149 18.7241C123.835 18.6229 123.486 18.5106 123.104 18.387C122.734 18.2635 122.391 18.1062 122.076 17.9152C121.762 17.7242 121.498 17.4771 121.284 17.1738C121.071 16.8704 120.964 16.4885 120.964 16.0279C120.964 15.6909 121.032 15.3707 121.166 15.0674C121.312 14.764 121.52 14.4944 121.79 14.2585C122.06 14.0226 122.385 13.8372 122.767 13.7024C123.16 13.5676 123.599 13.5002 124.082 13.5002C124.587 13.5002 125.025 13.5676 125.396 13.7024C125.778 13.8372 126.098 13.9833 126.357 14.1406C126.649 14.3315 126.901 14.5394 127.115 14.7641L125.851 16.0279C125.716 15.9043 125.559 15.792 125.379 15.6909C125.222 15.601 125.031 15.5223 124.806 15.4549C124.593 15.3875 124.351 15.3538 124.082 15.3538C123.7 15.3538 123.419 15.4269 123.239 15.5729C123.071 15.7077 122.986 15.8594 122.986 16.0279C122.986 16.2076 123.093 16.3537 123.307 16.466C123.52 16.5783 123.784 16.6851 124.099 16.7862C124.413 16.8873 124.756 16.9996 125.126 17.1232C125.508 17.2468 125.857 17.4041 126.171 17.595C126.486 17.786 126.75 18.0332 126.963 18.3365C127.177 18.6398 127.283 19.0218 127.283 19.4823C127.283 19.8306 127.21 20.162 127.064 20.4766C126.918 20.7911 126.705 21.072 126.424 21.3191C126.143 21.555 125.795 21.746 125.379 21.8921C124.975 22.0269 124.514 22.0943 123.997 22.0943Z" fill="white" fill-opacity="0.8"/>
<path d="M16.055 3.74337C16.055 4.42998 15.4915 4.9866 14.7962 4.9866C14.101 4.9866 13.5374 4.42998 13.5374 3.74337C13.5374 3.05676 14.101 2.5 14.7962 2.5C15.4915 2.5 16.055 3.05676 16.055 3.74337Z" fill="var(--fill-0, white)"/>
<path d="M5.40952 16.5537C5.40952 15.4456 6.31909 14.5471 7.44126 14.5471C8.56343 14.5471 9.47301 15.4456 9.47301 16.5537H5.40952Z" fill="var(--fill-0, white)"/>
<path d="M11.5057 18.5605C11.5057 20.3552 12.9789 21.8103 14.7963 21.8103C16.6135 21.8103 18.0868 20.3552 18.0868 18.5605H11.5057Z" fill="var(--fill-0, white)"/>
<path d="M22.1651 14.5475C21.0429 14.5475 20.1333 15.446 20.1333 16.5541H24.1968C24.1968 15.446 23.2873 14.5475 22.1651 14.5475Z" fill="var(--fill-0, white)"/>
<path fill-rule="evenodd" clip-rule="evenodd" d="M29.0271 16.2727C28.6855 13.9818 28.1742 11.6649 27.8054 10.1249C27.3658 8.2897 25.7901 6.97799 23.8847 6.86079C22.014 6.74563 18.9187 6.60822 14.7962 6.60822C10.6735 6.60822 7.57817 6.74563 5.70779 6.86079C3.80207 6.97799 2.22644 8.2897 1.78696 10.1249C1.41816 11.6642 0.906981 13.9802 0.565118 16.2727C0.33397 17.8226 0.147138 19.6531 0.00962665 21.7132C-0.0672263 22.8612 0.318069 23.9661 1.09411 24.8243C1.87132 25.6837 2.94138 26.1865 4.10742 26.2404C6.66875 26.3588 10.6022 26.5 14.7962 26.5C18.9898 26.5 22.9235 26.3588 25.4849 26.2404C26.651 26.1865 27.721 25.6837 28.4981 24.8243C29.2741 23.9663 29.6594 22.8613 29.5826 21.7132C29.4452 19.6531 29.2582 17.8226 29.0271 16.2727ZM26.9827 23.4878C26.572 23.9417 26.0064 24.2074 25.3899 24.236C22.85 24.3534 18.9503 24.4932 14.796 24.4932C10.6415 24.4932 6.7419 24.3534 4.20222 24.236C3.58563 24.2074 3.01998 23.9417 2.60921 23.4876C2.19962 23.0347 1.9963 22.4513 2.03679 21.8452C2.17077 19.8385 2.35186 18.0621 2.57505 16.5649C2.90632 14.3433 3.40454 12.0879 3.76407 10.5867C3.99595 9.61785 4.82794 8.92542 5.83395 8.86362C7.67562 8.75021 10.7256 8.61498 14.796 8.61498C18.8661 8.61498 21.9162 8.75021 23.7582 8.86362C24.7642 8.92542 25.5959 9.61785 25.8279 10.5867C26.1878 12.0885 26.6858 14.3447 27.0168 16.5649C27.24 18.0621 27.4213 19.8385 27.5552 21.8452C27.5956 22.4514 27.3922 23.0348 26.9827 23.4878Z" fill="var(--fill-0, white)"/>
</g>
</g>
</svg>
